<mxfile host="app.diagrams.net" modified="2023-04-06T11:14:30.212Z" agent="Mozilla/5.0 (Windows NT 10.0; Win64; x64) AppleWebKit/537.36 (KHTML, like Gecko) Chrome/111.0.0.0 Safari/537.36" etag="NwHEB6IyMMl_Npt0WlTK" version="21.1.4" type="github" pages="4">
  <diagram name="Lokasyon" id="V22ZabiKrEkzvbPhqrHl">
    <mxGraphModel dx="2564" dy="630" grid="1" gridSize="10" guides="1" tooltips="1" connect="1" arrows="1" fold="1" page="1" pageScale="1" pageWidth="1169" pageHeight="827" math="0" shadow="0">
      <root>
        <mxCell id="0" />
        <mxCell id="1" parent="0" />
        <mxCell id="ftC1xpLoeg28yIElErKD-1" value="Lokasyon Sayfası" style="rounded=0;whiteSpace=wrap;html=1;fillColor=#dae8fc;strokeColor=#6c8ebf;movable=1;resizable=1;rotatable=1;deletable=1;editable=1;locked=0;connectable=1;" parent="1" vertex="1">
          <mxGeometry x="-1160" width="1151" height="40" as="geometry" />
        </mxCell>
        <mxCell id="ftC1xpLoeg28yIElErKD-43" value="" style="shape=table;startSize=0;container=1;collapsible=0;childLayout=tableLayout;fontSize=16;" parent="1" vertex="1">
          <mxGeometry x="-1160" y="120" width="1080" height="240" as="geometry" />
        </mxCell>
        <mxCell id="ftC1xpLoeg28yIElErKD-44" value="" style="shape=tableRow;horizontal=0;startSize=0;swimlaneHead=0;swimlaneBody=0;strokeColor=inherit;top=0;left=0;bottom=0;right=0;collapsible=0;dropTarget=0;fillColor=none;points=[[0,0.5],[1,0.5]];portConstraint=eastwest;fontSize=16;" parent="ftC1xpLoeg28yIElErKD-43" vertex="1">
          <mxGeometry width="1080" height="48" as="geometry" />
        </mxCell>
        <mxCell id="ftC1xpLoeg28yIElErKD-77" value="Lokasyon Adı" style="shape=partialRectangle;html=1;whiteSpace=wrap;connectable=0;strokeColor=inherit;overflow=hidden;fillColor=none;top=0;left=0;bottom=0;right=0;pointerEvents=1;fontSize=16;fontStyle=1" parent="ftC1xpLoeg28yIElErKD-44" vertex="1">
          <mxGeometry width="180" height="48" as="geometry">
            <mxRectangle width="180" height="48" as="alternateBounds" />
          </mxGeometry>
        </mxCell>
        <mxCell id="ftC1xpLoeg28yIElErKD-74" value="İl" style="shape=partialRectangle;html=1;whiteSpace=wrap;connectable=0;strokeColor=inherit;overflow=hidden;fillColor=none;top=0;left=0;bottom=0;right=0;pointerEvents=1;fontSize=16;fontStyle=1" parent="ftC1xpLoeg28yIElErKD-44" vertex="1">
          <mxGeometry x="180" width="180" height="48" as="geometry">
            <mxRectangle width="180" height="48" as="alternateBounds" />
          </mxGeometry>
        </mxCell>
        <mxCell id="ftC1xpLoeg28yIElErKD-71" value="İlçe" style="shape=partialRectangle;html=1;whiteSpace=wrap;connectable=0;strokeColor=inherit;overflow=hidden;fillColor=none;top=0;left=0;bottom=0;right=0;pointerEvents=1;fontSize=16;fontStyle=1" parent="ftC1xpLoeg28yIElErKD-44" vertex="1">
          <mxGeometry x="360" width="180" height="48" as="geometry">
            <mxRectangle width="180" height="48" as="alternateBounds" />
          </mxGeometry>
        </mxCell>
        <mxCell id="ftC1xpLoeg28yIElErKD-45" value="Mahalle" style="shape=partialRectangle;html=1;whiteSpace=wrap;connectable=0;strokeColor=inherit;overflow=hidden;fillColor=none;top=0;left=0;bottom=0;right=0;pointerEvents=1;fontSize=16;fontStyle=1" parent="ftC1xpLoeg28yIElErKD-44" vertex="1">
          <mxGeometry x="540" width="180" height="48" as="geometry">
            <mxRectangle width="180" height="48" as="alternateBounds" />
          </mxGeometry>
        </mxCell>
        <mxCell id="ftC1xpLoeg28yIElErKD-46" value="Tags" style="shape=partialRectangle;html=1;whiteSpace=wrap;connectable=0;strokeColor=inherit;overflow=hidden;fillColor=none;top=0;left=0;bottom=0;right=0;pointerEvents=1;fontSize=16;fontStyle=1" parent="ftC1xpLoeg28yIElErKD-44" vertex="1">
          <mxGeometry x="720" width="180" height="48" as="geometry">
            <mxRectangle width="180" height="48" as="alternateBounds" />
          </mxGeometry>
        </mxCell>
        <mxCell id="ftC1xpLoeg28yIElErKD-47" value="Telefon" style="shape=partialRectangle;html=1;whiteSpace=wrap;connectable=0;strokeColor=inherit;overflow=hidden;fillColor=none;top=0;left=0;bottom=0;right=0;pointerEvents=1;fontSize=16;fontStyle=1" parent="ftC1xpLoeg28yIElErKD-44" vertex="1">
          <mxGeometry x="900" width="180" height="48" as="geometry">
            <mxRectangle width="180" height="48" as="alternateBounds" />
          </mxGeometry>
        </mxCell>
        <mxCell id="ftC1xpLoeg28yIElErKD-48" value="" style="shape=tableRow;horizontal=0;startSize=0;swimlaneHead=0;swimlaneBody=0;strokeColor=inherit;top=0;left=0;bottom=0;right=0;collapsible=0;dropTarget=0;fillColor=none;points=[[0,0.5],[1,0.5]];portConstraint=eastwest;fontSize=16;" parent="ftC1xpLoeg28yIElErKD-43" vertex="1">
          <mxGeometry y="48" width="1080" height="48" as="geometry" />
        </mxCell>
        <mxCell id="ftC1xpLoeg28yIElErKD-78" value="Lokasyon1" style="shape=partialRectangle;html=1;whiteSpace=wrap;connectable=0;strokeColor=inherit;overflow=hidden;fillColor=none;top=0;left=0;bottom=0;right=0;pointerEvents=1;fontSize=16;fontStyle=4" parent="ftC1xpLoeg28yIElErKD-48" vertex="1">
          <mxGeometry width="180" height="48" as="geometry">
            <mxRectangle width="180" height="48" as="alternateBounds" />
          </mxGeometry>
        </mxCell>
        <mxCell id="ftC1xpLoeg28yIElErKD-75" style="shape=partialRectangle;html=1;whiteSpace=wrap;connectable=0;strokeColor=inherit;overflow=hidden;fillColor=none;top=0;left=0;bottom=0;right=0;pointerEvents=1;fontSize=16;" parent="ftC1xpLoeg28yIElErKD-48" vertex="1">
          <mxGeometry x="180" width="180" height="48" as="geometry">
            <mxRectangle width="180" height="48" as="alternateBounds" />
          </mxGeometry>
        </mxCell>
        <mxCell id="ftC1xpLoeg28yIElErKD-72" style="shape=partialRectangle;html=1;whiteSpace=wrap;connectable=0;strokeColor=inherit;overflow=hidden;fillColor=none;top=0;left=0;bottom=0;right=0;pointerEvents=1;fontSize=16;" parent="ftC1xpLoeg28yIElErKD-48" vertex="1">
          <mxGeometry x="360" width="180" height="48" as="geometry">
            <mxRectangle width="180" height="48" as="alternateBounds" />
          </mxGeometry>
        </mxCell>
        <mxCell id="ftC1xpLoeg28yIElErKD-49" value="" style="shape=partialRectangle;html=1;whiteSpace=wrap;connectable=0;strokeColor=inherit;overflow=hidden;fillColor=none;top=0;left=0;bottom=0;right=0;pointerEvents=1;fontSize=16;" parent="ftC1xpLoeg28yIElErKD-48" vertex="1">
          <mxGeometry x="540" width="180" height="48" as="geometry">
            <mxRectangle width="180" height="48" as="alternateBounds" />
          </mxGeometry>
        </mxCell>
        <mxCell id="ftC1xpLoeg28yIElErKD-50" value="" style="shape=partialRectangle;html=1;whiteSpace=wrap;connectable=0;strokeColor=inherit;overflow=hidden;fillColor=none;top=0;left=0;bottom=0;right=0;pointerEvents=1;fontSize=16;" parent="ftC1xpLoeg28yIElErKD-48" vertex="1">
          <mxGeometry x="720" width="180" height="48" as="geometry">
            <mxRectangle width="180" height="48" as="alternateBounds" />
          </mxGeometry>
        </mxCell>
        <mxCell id="ftC1xpLoeg28yIElErKD-51" value="" style="shape=partialRectangle;html=1;whiteSpace=wrap;connectable=0;strokeColor=inherit;overflow=hidden;fillColor=none;top=0;left=0;bottom=0;right=0;pointerEvents=1;fontSize=16;" parent="ftC1xpLoeg28yIElErKD-48" vertex="1">
          <mxGeometry x="900" width="180" height="48" as="geometry">
            <mxRectangle width="180" height="48" as="alternateBounds" />
          </mxGeometry>
        </mxCell>
        <mxCell id="ftC1xpLoeg28yIElErKD-52" value="" style="shape=tableRow;horizontal=0;startSize=0;swimlaneHead=0;swimlaneBody=0;strokeColor=inherit;top=0;left=0;bottom=0;right=0;collapsible=0;dropTarget=0;fillColor=none;points=[[0,0.5],[1,0.5]];portConstraint=eastwest;fontSize=16;" parent="ftC1xpLoeg28yIElErKD-43" vertex="1">
          <mxGeometry y="96" width="1080" height="48" as="geometry" />
        </mxCell>
        <mxCell id="ftC1xpLoeg28yIElErKD-79" value="Lokasyon2" style="shape=partialRectangle;html=1;whiteSpace=wrap;connectable=0;strokeColor=inherit;overflow=hidden;fillColor=none;top=0;left=0;bottom=0;right=0;pointerEvents=1;fontSize=16;fontStyle=4" parent="ftC1xpLoeg28yIElErKD-52" vertex="1">
          <mxGeometry width="180" height="48" as="geometry">
            <mxRectangle width="180" height="48" as="alternateBounds" />
          </mxGeometry>
        </mxCell>
        <mxCell id="ftC1xpLoeg28yIElErKD-76" style="shape=partialRectangle;html=1;whiteSpace=wrap;connectable=0;strokeColor=inherit;overflow=hidden;fillColor=none;top=0;left=0;bottom=0;right=0;pointerEvents=1;fontSize=16;" parent="ftC1xpLoeg28yIElErKD-52" vertex="1">
          <mxGeometry x="180" width="180" height="48" as="geometry">
            <mxRectangle width="180" height="48" as="alternateBounds" />
          </mxGeometry>
        </mxCell>
        <mxCell id="ftC1xpLoeg28yIElErKD-73" style="shape=partialRectangle;html=1;whiteSpace=wrap;connectable=0;strokeColor=inherit;overflow=hidden;fillColor=none;top=0;left=0;bottom=0;right=0;pointerEvents=1;fontSize=16;" parent="ftC1xpLoeg28yIElErKD-52" vertex="1">
          <mxGeometry x="360" width="180" height="48" as="geometry">
            <mxRectangle width="180" height="48" as="alternateBounds" />
          </mxGeometry>
        </mxCell>
        <mxCell id="ftC1xpLoeg28yIElErKD-53" value="" style="shape=partialRectangle;html=1;whiteSpace=wrap;connectable=0;strokeColor=inherit;overflow=hidden;fillColor=none;top=0;left=0;bottom=0;right=0;pointerEvents=1;fontSize=16;" parent="ftC1xpLoeg28yIElErKD-52" vertex="1">
          <mxGeometry x="540" width="180" height="48" as="geometry">
            <mxRectangle width="180" height="48" as="alternateBounds" />
          </mxGeometry>
        </mxCell>
        <mxCell id="ftC1xpLoeg28yIElErKD-54" value="" style="shape=partialRectangle;html=1;whiteSpace=wrap;connectable=0;strokeColor=inherit;overflow=hidden;fillColor=none;top=0;left=0;bottom=0;right=0;pointerEvents=1;fontSize=16;" parent="ftC1xpLoeg28yIElErKD-52" vertex="1">
          <mxGeometry x="720" width="180" height="48" as="geometry">
            <mxRectangle width="180" height="48" as="alternateBounds" />
          </mxGeometry>
        </mxCell>
        <mxCell id="ftC1xpLoeg28yIElErKD-55" value="" style="shape=partialRectangle;html=1;whiteSpace=wrap;connectable=0;strokeColor=inherit;overflow=hidden;fillColor=none;top=0;left=0;bottom=0;right=0;pointerEvents=1;fontSize=16;" parent="ftC1xpLoeg28yIElErKD-52" vertex="1">
          <mxGeometry x="900" width="180" height="48" as="geometry">
            <mxRectangle width="180" height="48" as="alternateBounds" />
          </mxGeometry>
        </mxCell>
        <mxCell id="ftC1xpLoeg28yIElErKD-80" style="shape=tableRow;horizontal=0;startSize=0;swimlaneHead=0;swimlaneBody=0;strokeColor=inherit;top=0;left=0;bottom=0;right=0;collapsible=0;dropTarget=0;fillColor=none;points=[[0,0.5],[1,0.5]];portConstraint=eastwest;fontSize=16;" parent="ftC1xpLoeg28yIElErKD-43" vertex="1">
          <mxGeometry y="144" width="1080" height="48" as="geometry" />
        </mxCell>
        <mxCell id="ftC1xpLoeg28yIElErKD-81" value="Lokasyon3" style="shape=partialRectangle;html=1;whiteSpace=wrap;connectable=0;strokeColor=inherit;overflow=hidden;fillColor=none;top=0;left=0;bottom=0;right=0;pointerEvents=1;fontSize=16;fontStyle=4" parent="ftC1xpLoeg28yIElErKD-80" vertex="1">
          <mxGeometry width="180" height="48" as="geometry">
            <mxRectangle width="180" height="48" as="alternateBounds" />
          </mxGeometry>
        </mxCell>
        <mxCell id="ftC1xpLoeg28yIElErKD-82" style="shape=partialRectangle;html=1;whiteSpace=wrap;connectable=0;strokeColor=inherit;overflow=hidden;fillColor=none;top=0;left=0;bottom=0;right=0;pointerEvents=1;fontSize=16;" parent="ftC1xpLoeg28yIElErKD-80" vertex="1">
          <mxGeometry x="180" width="180" height="48" as="geometry">
            <mxRectangle width="180" height="48" as="alternateBounds" />
          </mxGeometry>
        </mxCell>
        <mxCell id="ftC1xpLoeg28yIElErKD-83" style="shape=partialRectangle;html=1;whiteSpace=wrap;connectable=0;strokeColor=inherit;overflow=hidden;fillColor=none;top=0;left=0;bottom=0;right=0;pointerEvents=1;fontSize=16;" parent="ftC1xpLoeg28yIElErKD-80" vertex="1">
          <mxGeometry x="360" width="180" height="48" as="geometry">
            <mxRectangle width="180" height="48" as="alternateBounds" />
          </mxGeometry>
        </mxCell>
        <mxCell id="ftC1xpLoeg28yIElErKD-84" style="shape=partialRectangle;html=1;whiteSpace=wrap;connectable=0;strokeColor=inherit;overflow=hidden;fillColor=none;top=0;left=0;bottom=0;right=0;pointerEvents=1;fontSize=16;" parent="ftC1xpLoeg28yIElErKD-80" vertex="1">
          <mxGeometry x="540" width="180" height="48" as="geometry">
            <mxRectangle width="180" height="48" as="alternateBounds" />
          </mxGeometry>
        </mxCell>
        <mxCell id="ftC1xpLoeg28yIElErKD-85" style="shape=partialRectangle;html=1;whiteSpace=wrap;connectable=0;strokeColor=inherit;overflow=hidden;fillColor=none;top=0;left=0;bottom=0;right=0;pointerEvents=1;fontSize=16;" parent="ftC1xpLoeg28yIElErKD-80" vertex="1">
          <mxGeometry x="720" width="180" height="48" as="geometry">
            <mxRectangle width="180" height="48" as="alternateBounds" />
          </mxGeometry>
        </mxCell>
        <mxCell id="ftC1xpLoeg28yIElErKD-86" style="shape=partialRectangle;html=1;whiteSpace=wrap;connectable=0;strokeColor=inherit;overflow=hidden;fillColor=none;top=0;left=0;bottom=0;right=0;pointerEvents=1;fontSize=16;" parent="ftC1xpLoeg28yIElErKD-80" vertex="1">
          <mxGeometry x="900" width="180" height="48" as="geometry">
            <mxRectangle width="180" height="48" as="alternateBounds" />
          </mxGeometry>
        </mxCell>
        <mxCell id="ftC1xpLoeg28yIElErKD-87" style="shape=tableRow;horizontal=0;startSize=0;swimlaneHead=0;swimlaneBody=0;strokeColor=inherit;top=0;left=0;bottom=0;right=0;collapsible=0;dropTarget=0;fillColor=none;points=[[0,0.5],[1,0.5]];portConstraint=eastwest;fontSize=16;" parent="ftC1xpLoeg28yIElErKD-43" vertex="1">
          <mxGeometry y="192" width="1080" height="48" as="geometry" />
        </mxCell>
        <mxCell id="ftC1xpLoeg28yIElErKD-88" style="shape=partialRectangle;html=1;whiteSpace=wrap;connectable=0;strokeColor=inherit;overflow=hidden;fillColor=none;top=0;left=0;bottom=0;right=0;pointerEvents=1;fontSize=16;" parent="ftC1xpLoeg28yIElErKD-87" vertex="1">
          <mxGeometry width="180" height="48" as="geometry">
            <mxRectangle width="180" height="48" as="alternateBounds" />
          </mxGeometry>
        </mxCell>
        <mxCell id="ftC1xpLoeg28yIElErKD-89" style="shape=partialRectangle;html=1;whiteSpace=wrap;connectable=0;strokeColor=inherit;overflow=hidden;fillColor=none;top=0;left=0;bottom=0;right=0;pointerEvents=1;fontSize=16;" parent="ftC1xpLoeg28yIElErKD-87" vertex="1">
          <mxGeometry x="180" width="180" height="48" as="geometry">
            <mxRectangle width="180" height="48" as="alternateBounds" />
          </mxGeometry>
        </mxCell>
        <mxCell id="ftC1xpLoeg28yIElErKD-90" style="shape=partialRectangle;html=1;whiteSpace=wrap;connectable=0;strokeColor=inherit;overflow=hidden;fillColor=none;top=0;left=0;bottom=0;right=0;pointerEvents=1;fontSize=16;" parent="ftC1xpLoeg28yIElErKD-87" vertex="1">
          <mxGeometry x="360" width="180" height="48" as="geometry">
            <mxRectangle width="180" height="48" as="alternateBounds" />
          </mxGeometry>
        </mxCell>
        <mxCell id="ftC1xpLoeg28yIElErKD-91" style="shape=partialRectangle;html=1;whiteSpace=wrap;connectable=0;strokeColor=inherit;overflow=hidden;fillColor=none;top=0;left=0;bottom=0;right=0;pointerEvents=1;fontSize=16;" parent="ftC1xpLoeg28yIElErKD-87" vertex="1">
          <mxGeometry x="540" width="180" height="48" as="geometry">
            <mxRectangle width="180" height="48" as="alternateBounds" />
          </mxGeometry>
        </mxCell>
        <mxCell id="ftC1xpLoeg28yIElErKD-92" style="shape=partialRectangle;html=1;whiteSpace=wrap;connectable=0;strokeColor=inherit;overflow=hidden;fillColor=none;top=0;left=0;bottom=0;right=0;pointerEvents=1;fontSize=16;" parent="ftC1xpLoeg28yIElErKD-87" vertex="1">
          <mxGeometry x="720" width="180" height="48" as="geometry">
            <mxRectangle width="180" height="48" as="alternateBounds" />
          </mxGeometry>
        </mxCell>
        <mxCell id="ftC1xpLoeg28yIElErKD-93" style="shape=partialRectangle;html=1;whiteSpace=wrap;connectable=0;strokeColor=inherit;overflow=hidden;fillColor=none;top=0;left=0;bottom=0;right=0;pointerEvents=1;fontSize=16;" parent="ftC1xpLoeg28yIElErKD-87" vertex="1">
          <mxGeometry x="900" width="180" height="48" as="geometry">
            <mxRectangle width="180" height="48" as="alternateBounds" />
          </mxGeometry>
        </mxCell>
        <mxCell id="ftC1xpLoeg28yIElErKD-2" value="" style="group" parent="1" vertex="1" connectable="0">
          <mxGeometry x="10" y="120" width="160" height="240" as="geometry" />
        </mxCell>
        <mxCell id="ftC1xpLoeg28yIElErKD-3" value="Lokasyon Adı" style="rounded=0;whiteSpace=wrap;html=1;" parent="ftC1xpLoeg28yIElErKD-2" vertex="1">
          <mxGeometry width="160" height="40" as="geometry" />
        </mxCell>
        <mxCell id="ftC1xpLoeg28yIElErKD-4" value="Koordinat" style="rounded=0;whiteSpace=wrap;html=1;" parent="ftC1xpLoeg28yIElErKD-2" vertex="1">
          <mxGeometry y="200" width="160" height="40" as="geometry" />
        </mxCell>
        <mxCell id="ftC1xpLoeg28yIElErKD-5" value="Adres" style="rounded=0;whiteSpace=wrap;html=1;" parent="ftC1xpLoeg28yIElErKD-2" vertex="1">
          <mxGeometry y="160" width="160" height="40" as="geometry" />
        </mxCell>
        <mxCell id="ftC1xpLoeg28yIElErKD-6" value="Mahalle" style="rounded=0;whiteSpace=wrap;html=1;" parent="ftC1xpLoeg28yIElErKD-2" vertex="1">
          <mxGeometry y="120" width="160" height="40" as="geometry" />
        </mxCell>
        <mxCell id="ftC1xpLoeg28yIElErKD-7" value="İl" style="rounded=0;whiteSpace=wrap;html=1;" parent="ftC1xpLoeg28yIElErKD-2" vertex="1">
          <mxGeometry y="40" width="160" height="40" as="geometry" />
        </mxCell>
        <mxCell id="ftC1xpLoeg28yIElErKD-8" value="İlçe" style="rounded=0;whiteSpace=wrap;html=1;" parent="ftC1xpLoeg28yIElErKD-2" vertex="1">
          <mxGeometry y="80" width="160" height="40" as="geometry" />
        </mxCell>
        <mxCell id="ftC1xpLoeg28yIElErKD-10" value="Telefon" style="rounded=0;whiteSpace=wrap;html=1;" parent="1" vertex="1">
          <mxGeometry x="10" y="360" width="160" height="40" as="geometry" />
        </mxCell>
        <mxCell id="ftC1xpLoeg28yIElErKD-11" value="Tags" style="rounded=0;whiteSpace=wrap;html=1;" parent="1" vertex="1">
          <mxGeometry x="10" y="400" width="160" height="40" as="geometry" />
        </mxCell>
        <mxCell id="ftC1xpLoeg28yIElErKD-99" value="" style="group" parent="1" vertex="1" connectable="0">
          <mxGeometry x="200" y="120" width="880" height="320" as="geometry" />
        </mxCell>
        <mxCell id="ftC1xpLoeg28yIElErKD-12" value="&lt;span style=&quot;white-space: pre;&quot;&gt; &lt;/span&gt;Lokasyon adını giriniz" style="rounded=0;whiteSpace=wrap;html=1;shadow=1;fillColor=#f5f5f5;fontColor=#333333;strokeColor=#666666;align=left;" parent="ftC1xpLoeg28yIElErKD-99" vertex="1">
          <mxGeometry width="878.965922444183" height="40" as="geometry" />
        </mxCell>
        <mxCell id="ftC1xpLoeg28yIElErKD-14" value="&lt;span style=&quot;white-space: pre;&quot;&gt; &lt;/span&gt;İl seçiniz" style="rounded=0;whiteSpace=wrap;html=1;shadow=1;fillColor=#f5f5f5;fontColor=#333333;strokeColor=#666666;align=left;" parent="ftC1xpLoeg28yIElErKD-99" vertex="1">
          <mxGeometry y="40" width="878.965922444183" height="40" as="geometry" />
        </mxCell>
        <mxCell id="ftC1xpLoeg28yIElErKD-15" value="&lt;span style=&quot;white-space: pre;&quot;&gt; &lt;/span&gt;İlçe seçiniz" style="rounded=0;whiteSpace=wrap;html=1;shadow=1;fillColor=#f5f5f5;fontColor=#333333;strokeColor=#666666;align=left;" parent="ftC1xpLoeg28yIElErKD-99" vertex="1">
          <mxGeometry y="80" width="878.965922444183" height="40" as="geometry" />
        </mxCell>
        <mxCell id="ftC1xpLoeg28yIElErKD-16" value="&lt;span style=&quot;white-space: pre;&quot;&gt; &lt;/span&gt;Mahalle seçiniz" style="rounded=0;whiteSpace=wrap;html=1;shadow=1;fillColor=#f5f5f5;fontColor=#333333;strokeColor=#666666;align=left;" parent="ftC1xpLoeg28yIElErKD-99" vertex="1">
          <mxGeometry y="120" width="878.965922444183" height="40" as="geometry" />
        </mxCell>
        <mxCell id="ftC1xpLoeg28yIElErKD-17" value="&lt;span style=&quot;white-space: pre;&quot;&gt; &lt;/span&gt;Adres giriniz" style="rounded=0;whiteSpace=wrap;html=1;shadow=1;fillColor=#f5f5f5;fontColor=#333333;strokeColor=#666666;align=left;" parent="ftC1xpLoeg28yIElErKD-99" vertex="1">
          <mxGeometry y="160" width="878.965922444183" height="40" as="geometry" />
        </mxCell>
        <mxCell id="ftC1xpLoeg28yIElErKD-18" value="&lt;span style=&quot;white-space: pre;&quot;&gt; &lt;/span&gt;Haritadan koordinat giriniz." style="rounded=0;whiteSpace=wrap;html=1;shadow=1;fillColor=#f5f5f5;fontColor=#333333;strokeColor=#666666;align=left;" parent="ftC1xpLoeg28yIElErKD-99" vertex="1">
          <mxGeometry y="200" width="878.965922444183" height="40" as="geometry" />
        </mxCell>
        <mxCell id="ftC1xpLoeg28yIElErKD-19" value="&lt;span style=&quot;white-space: pre;&quot;&gt; &lt;/span&gt;+90&amp;nbsp;" style="rounded=0;whiteSpace=wrap;html=1;shadow=1;fillColor=#f5f5f5;fontColor=#333333;strokeColor=#666666;align=left;" parent="ftC1xpLoeg28yIElErKD-99" vertex="1">
          <mxGeometry y="240" width="878.965922444183" height="40" as="geometry" />
        </mxCell>
        <mxCell id="ftC1xpLoeg28yIElErKD-21" value="" style="shape=image;html=1;verticalAlign=top;verticalLabelPosition=bottom;labelBackgroundColor=#ffffff;imageAspect=0;aspect=fixed;image=https://cdn4.iconfinder.com/data/icons/essential-app-2/16/location-service-place-gps-128.png;imageBackground=none;" parent="ftC1xpLoeg28yIElErKD-99" vertex="1">
          <mxGeometry x="850.01" y="206.17000000000002" width="27.67" height="27.67" as="geometry" />
        </mxCell>
        <mxCell id="ftC1xpLoeg28yIElErKD-22" value="" style="group" parent="ftC1xpLoeg28yIElErKD-99" vertex="1" connectable="0">
          <mxGeometry y="280" width="878.965922444183" height="40" as="geometry" />
        </mxCell>
        <mxCell id="ftC1xpLoeg28yIElErKD-23" value="" style="shape=image;html=1;verticalAlign=top;verticalLabelPosition=bottom;labelBackgroundColor=#ffffff;imageAspect=0;aspect=fixed;image=https://cdn4.iconfinder.com/data/icons/evil-icons-user-interface/64/minus-128.png" parent="ftC1xpLoeg28yIElErKD-22" vertex="1">
          <mxGeometry x="793.5109022065541" y="11.428571428571427" width="21.42857142857143" height="21.42857142857143" as="geometry" />
        </mxCell>
        <mxCell id="ftC1xpLoeg28yIElErKD-24" value="" style="rounded=0;whiteSpace=wrap;html=1;shadow=1;" parent="ftC1xpLoeg28yIElErKD-22" vertex="1">
          <mxGeometry width="878.965922444183" height="38.095238095238095" as="geometry" />
        </mxCell>
        <mxCell id="ftC1xpLoeg28yIElErKD-25" value="Removable tag1" style="dashed=0;html=1;fillColor=#F0F2F5;strokeColor=none;align=left;rounded=1;arcSize=10;fontColor=#596780;fontStyle=1;fontSize=8;shadow=0;spacingLeft=3" parent="ftC1xpLoeg28yIElErKD-22" vertex="1">
          <mxGeometry x="24.414571092831952" y="9.52" width="89.3339600470035" height="19.05" as="geometry" />
        </mxCell>
        <mxCell id="ftC1xpLoeg28yIElErKD-26" value="" style="html=1;shadow=0;dashed=0;shape=mxgraph.atlassian.x;strokeColor=#596780;strokeWidth=2" parent="ftC1xpLoeg28yIElErKD-25" vertex="1">
          <mxGeometry x="1" y="0.5" width="6" height="6" relative="1" as="geometry">
            <mxPoint x="-11" y="-3" as="offset" />
          </mxGeometry>
        </mxCell>
        <mxCell id="ftC1xpLoeg28yIElErKD-27" value="Removable tag4" style="dashed=0;html=1;fillColor=#F0F2F5;strokeColor=none;align=left;rounded=1;arcSize=10;fontColor=#596780;fontStyle=1;fontSize=8;shadow=0;spacingLeft=3" parent="ftC1xpLoeg28yIElErKD-22" vertex="1">
          <mxGeometry x="248.1786133960046" y="9.52" width="103.4077555816686" height="19.05" as="geometry" />
        </mxCell>
        <mxCell id="ftC1xpLoeg28yIElErKD-28" value="" style="html=1;shadow=0;dashed=0;shape=mxgraph.atlassian.x;strokeColor=#596780;strokeWidth=2" parent="ftC1xpLoeg28yIElErKD-27" vertex="1">
          <mxGeometry x="1" y="0.5" width="6" height="6" relative="1" as="geometry">
            <mxPoint x="-11" y="-3" as="offset" />
          </mxGeometry>
        </mxCell>
        <mxCell id="ftC1xpLoeg28yIElErKD-29" value="Removable tag2" style="dashed=0;html=1;fillColor=#F0F2F5;strokeColor=none;align=left;rounded=1;arcSize=10;fontColor=#596780;fontStyle=1;fontSize=8;shadow=0;spacingLeft=3" parent="ftC1xpLoeg28yIElErKD-22" vertex="1">
          <mxGeometry x="124.0893066980023" y="10.47" width="103.4077555816686" height="19.05" as="geometry" />
        </mxCell>
        <mxCell id="ftC1xpLoeg28yIElErKD-30" value="" style="html=1;shadow=0;dashed=0;shape=mxgraph.atlassian.x;strokeColor=#596780;strokeWidth=2" parent="ftC1xpLoeg28yIElErKD-29" vertex="1">
          <mxGeometry x="1" y="0.5" width="6" height="6" relative="1" as="geometry">
            <mxPoint x="-11" y="-3" as="offset" />
          </mxGeometry>
        </mxCell>
        <mxCell id="ftC1xpLoeg28yIElErKD-40" value="" style="shape=triangle;direction=south;fillColor=#000000;strokeColor=none;html=1;sketch=0;" parent="ftC1xpLoeg28yIElErKD-99" vertex="1">
          <mxGeometry x="850.0117508813161" y="51.75" width="29.988249118683893" height="16.5" as="geometry" />
        </mxCell>
        <mxCell id="ftC1xpLoeg28yIElErKD-41" value="" style="shape=triangle;direction=south;fillColor=#000000;strokeColor=none;html=1;sketch=0;" parent="ftC1xpLoeg28yIElErKD-99" vertex="1">
          <mxGeometry x="850.0117508813161" y="91.75" width="29.988249118683893" height="16.5" as="geometry" />
        </mxCell>
        <mxCell id="ftC1xpLoeg28yIElErKD-42" value="" style="shape=triangle;direction=south;fillColor=#000000;strokeColor=none;html=1;sketch=0;fillStyle=solid;" parent="ftC1xpLoeg28yIElErKD-99" vertex="1">
          <mxGeometry x="848.9776733254994" y="131.75" width="29.988249118683893" height="16.5" as="geometry" />
        </mxCell>
        <mxCell id="ftC1xpLoeg28yIElErKD-100" value="Lokasyon Ekle" style="rounded=1;whiteSpace=wrap;html=1;" parent="1" vertex="1">
          <mxGeometry x="-1160" y="40" width="120" height="40" as="geometry" />
        </mxCell>
        <mxCell id="ftC1xpLoeg28yIElErKD-101" value="Lokasyon Ekle PopUp" style="rounded=0;whiteSpace=wrap;html=1;fillColor=#dae8fc;strokeColor=#6c8ebf;movable=1;resizable=1;rotatable=1;deletable=1;editable=1;locked=0;connectable=1;" parent="1" vertex="1">
          <mxGeometry x="9" width="1151" height="40" as="geometry" />
        </mxCell>
        <mxCell id="ftC1xpLoeg28yIElErKD-102" value="Lokasyon Ekle" style="rounded=1;whiteSpace=wrap;html=1;" parent="1" vertex="1">
          <mxGeometry x="9" y="40" width="120" height="40" as="geometry" />
        </mxCell>
        <mxCell id="ftC1xpLoeg28yIElErKD-103" value="" style="shape=table;startSize=0;container=1;collapsible=0;childLayout=tableLayout;fontSize=16;" parent="1" vertex="1">
          <mxGeometry x="-80" y="120" width="60" height="240" as="geometry" />
        </mxCell>
        <mxCell id="ftC1xpLoeg28yIElErKD-120" style="shape=tableRow;horizontal=0;startSize=0;swimlaneHead=0;swimlaneBody=0;strokeColor=inherit;top=0;left=0;bottom=0;right=0;collapsible=0;dropTarget=0;fillColor=none;points=[[0,0.5],[1,0.5]];portConstraint=eastwest;fontSize=16;" parent="ftC1xpLoeg28yIElErKD-103" vertex="1">
          <mxGeometry width="60" height="48" as="geometry" />
        </mxCell>
        <mxCell id="ftC1xpLoeg28yIElErKD-121" style="shape=partialRectangle;html=1;whiteSpace=wrap;connectable=0;strokeColor=inherit;overflow=hidden;fillColor=none;top=0;left=0;bottom=0;right=0;pointerEvents=1;fontSize=16;" parent="ftC1xpLoeg28yIElErKD-120" vertex="1">
          <mxGeometry width="60" height="48" as="geometry">
            <mxRectangle width="60" height="48" as="alternateBounds" />
          </mxGeometry>
        </mxCell>
        <mxCell id="ftC1xpLoeg28yIElErKD-116" style="shape=tableRow;horizontal=0;startSize=0;swimlaneHead=0;swimlaneBody=0;strokeColor=inherit;top=0;left=0;bottom=0;right=0;collapsible=0;dropTarget=0;fillColor=none;points=[[0,0.5],[1,0.5]];portConstraint=eastwest;fontSize=16;" parent="ftC1xpLoeg28yIElErKD-103" vertex="1">
          <mxGeometry y="48" width="60" height="48" as="geometry" />
        </mxCell>
        <mxCell id="ftC1xpLoeg28yIElErKD-117" style="shape=partialRectangle;html=1;whiteSpace=wrap;connectable=0;strokeColor=inherit;overflow=hidden;fillColor=none;top=0;left=0;bottom=0;right=0;pointerEvents=1;fontSize=16;" parent="ftC1xpLoeg28yIElErKD-116" vertex="1">
          <mxGeometry width="60" height="48" as="geometry">
            <mxRectangle width="60" height="48" as="alternateBounds" />
          </mxGeometry>
        </mxCell>
        <mxCell id="ftC1xpLoeg28yIElErKD-104" value="" style="shape=tableRow;horizontal=0;startSize=0;swimlaneHead=0;swimlaneBody=0;strokeColor=inherit;top=0;left=0;bottom=0;right=0;collapsible=0;dropTarget=0;fillColor=none;points=[[0,0.5],[1,0.5]];portConstraint=eastwest;fontSize=16;" parent="ftC1xpLoeg28yIElErKD-103" vertex="1">
          <mxGeometry y="96" width="60" height="48" as="geometry" />
        </mxCell>
        <mxCell id="ftC1xpLoeg28yIElErKD-105" value="" style="shape=partialRectangle;html=1;whiteSpace=wrap;connectable=0;strokeColor=inherit;overflow=hidden;fillColor=none;top=0;left=0;bottom=0;right=0;pointerEvents=1;fontSize=16;" parent="ftC1xpLoeg28yIElErKD-104" vertex="1">
          <mxGeometry width="60" height="48" as="geometry">
            <mxRectangle width="60" height="48" as="alternateBounds" />
          </mxGeometry>
        </mxCell>
        <mxCell id="ftC1xpLoeg28yIElErKD-108" value="" style="shape=tableRow;horizontal=0;startSize=0;swimlaneHead=0;swimlaneBody=0;strokeColor=inherit;top=0;left=0;bottom=0;right=0;collapsible=0;dropTarget=0;fillColor=none;points=[[0,0.5],[1,0.5]];portConstraint=eastwest;fontSize=16;" parent="ftC1xpLoeg28yIElErKD-103" vertex="1">
          <mxGeometry y="144" width="60" height="48" as="geometry" />
        </mxCell>
        <mxCell id="ftC1xpLoeg28yIElErKD-109" value="" style="shape=partialRectangle;html=1;whiteSpace=wrap;connectable=0;strokeColor=inherit;overflow=hidden;fillColor=none;top=0;left=0;bottom=0;right=0;pointerEvents=1;fontSize=16;" parent="ftC1xpLoeg28yIElErKD-108" vertex="1">
          <mxGeometry width="60" height="48" as="geometry">
            <mxRectangle width="60" height="48" as="alternateBounds" />
          </mxGeometry>
        </mxCell>
        <mxCell id="ftC1xpLoeg28yIElErKD-112" value="" style="shape=tableRow;horizontal=0;startSize=0;swimlaneHead=0;swimlaneBody=0;strokeColor=inherit;top=0;left=0;bottom=0;right=0;collapsible=0;dropTarget=0;fillColor=none;points=[[0,0.5],[1,0.5]];portConstraint=eastwest;fontSize=16;" parent="ftC1xpLoeg28yIElErKD-103" vertex="1">
          <mxGeometry y="192" width="60" height="48" as="geometry" />
        </mxCell>
        <mxCell id="ftC1xpLoeg28yIElErKD-113" value="" style="shape=partialRectangle;html=1;whiteSpace=wrap;connectable=0;strokeColor=inherit;overflow=hidden;fillColor=none;top=0;left=0;bottom=0;right=0;pointerEvents=1;fontSize=16;" parent="ftC1xpLoeg28yIElErKD-112" vertex="1">
          <mxGeometry width="60" height="48" as="geometry">
            <mxRectangle width="60" height="48" as="alternateBounds" />
          </mxGeometry>
        </mxCell>
        <mxCell id="ftC1xpLoeg28yIElErKD-124" value="" style="shape=image;html=1;verticalAlign=top;verticalLabelPosition=bottom;labelBackgroundColor=#ffffff;imageAspect=0;aspect=fixed;image=https://cdn4.iconfinder.com/data/icons/essential-app-2/16/location-service-place-gps-128.png;imageBackground=none;" parent="1" vertex="1">
          <mxGeometry x="-63.83999999999992" y="130.00000000000003" width="27.67" height="27.67" as="geometry" />
        </mxCell>
        <mxCell id="K_cyDnHmgMoN_NCZIGL--1" value="" style="shape=image;html=1;verticalAlign=top;verticalLabelPosition=bottom;labelBackgroundColor=#ffffff;imageAspect=0;aspect=fixed;image=https://cdn4.iconfinder.com/data/icons/essential-app-2/16/location-service-place-gps-128.png;imageBackground=none;" parent="1" vertex="1">
          <mxGeometry x="-63.83999999999992" y="180.00000000000003" width="27.67" height="27.67" as="geometry" />
        </mxCell>
        <mxCell id="K_cyDnHmgMoN_NCZIGL--2" value="" style="shape=image;html=1;verticalAlign=top;verticalLabelPosition=bottom;labelBackgroundColor=#ffffff;imageAspect=0;aspect=fixed;image=https://cdn4.iconfinder.com/data/icons/essential-app-2/16/location-service-place-gps-128.png;imageBackground=none;" parent="1" vertex="1">
          <mxGeometry x="-63.83999999999992" y="275" width="27.67" height="27.67" as="geometry" />
        </mxCell>
        <mxCell id="K_cyDnHmgMoN_NCZIGL--3" value="" style="shape=image;html=1;verticalAlign=top;verticalLabelPosition=bottom;labelBackgroundColor=#ffffff;imageAspect=0;aspect=fixed;image=https://cdn4.iconfinder.com/data/icons/essential-app-2/16/location-service-place-gps-128.png;imageBackground=none;" parent="1" vertex="1">
          <mxGeometry x="-63.83999999999992" y="320" width="27.67" height="27.67" as="geometry" />
        </mxCell>
        <mxCell id="K_cyDnHmgMoN_NCZIGL--4" value="" style="shape=image;html=1;verticalAlign=top;verticalLabelPosition=bottom;labelBackgroundColor=#ffffff;imageAspect=0;aspect=fixed;image=https://cdn4.iconfinder.com/data/icons/essential-app-2/16/location-service-place-gps-128.png;imageBackground=none;" parent="1" vertex="1">
          <mxGeometry x="-63.83999999999992" y="226.16000000000003" width="27.67" height="27.67" as="geometry" />
        </mxCell>
        <mxCell id="xGXHTZ3CqMaXARI-7lZG-1" value="Yönetici" style="rounded=0;whiteSpace=wrap;html=1;" vertex="1" parent="1">
          <mxGeometry x="10" y="440" width="160" height="40" as="geometry" />
        </mxCell>
        <mxCell id="xGXHTZ3CqMaXARI-7lZG-23" value="" style="group" vertex="1" connectable="0" parent="1">
          <mxGeometry x="200" y="440" width="878.965922444183" height="40" as="geometry" />
        </mxCell>
        <mxCell id="xGXHTZ3CqMaXARI-7lZG-24" value="" style="shape=image;html=1;verticalAlign=top;verticalLabelPosition=bottom;labelBackgroundColor=#ffffff;imageAspect=0;aspect=fixed;image=https://cdn4.iconfinder.com/data/icons/evil-icons-user-interface/64/minus-128.png" vertex="1" parent="xGXHTZ3CqMaXARI-7lZG-23">
          <mxGeometry x="793.5109022065541" y="11.428571428571427" width="21.42857142857143" height="21.42857142857143" as="geometry" />
        </mxCell>
        <mxCell id="xGXHTZ3CqMaXARI-7lZG-25" value="" style="rounded=0;whiteSpace=wrap;html=1;shadow=1;" vertex="1" parent="xGXHTZ3CqMaXARI-7lZG-23">
          <mxGeometry width="878.965922444183" height="38.095238095238095" as="geometry" />
        </mxCell>
        <mxCell id="xGXHTZ3CqMaXARI-7lZG-26" value="Personel1" style="dashed=0;html=1;fillColor=#F0F2F5;strokeColor=none;align=left;rounded=1;arcSize=10;fontColor=#596780;fontStyle=1;fontSize=8;shadow=0;spacingLeft=3" vertex="1" parent="xGXHTZ3CqMaXARI-7lZG-23">
          <mxGeometry x="24.414571092831952" y="9.52" width="89.3339600470035" height="19.05" as="geometry" />
        </mxCell>
        <mxCell id="xGXHTZ3CqMaXARI-7lZG-27" value="" style="html=1;shadow=0;dashed=0;shape=mxgraph.atlassian.x;strokeColor=#596780;strokeWidth=2" vertex="1" parent="xGXHTZ3CqMaXARI-7lZG-26">
          <mxGeometry x="1" y="0.5" width="6" height="6" relative="1" as="geometry">
            <mxPoint x="-11" y="-3" as="offset" />
          </mxGeometry>
        </mxCell>
        <mxCell id="xGXHTZ3CqMaXARI-7lZG-28" value="Personel5" style="dashed=0;html=1;fillColor=#F0F2F5;strokeColor=none;align=left;rounded=1;arcSize=10;fontColor=#596780;fontStyle=1;fontSize=8;shadow=0;spacingLeft=3" vertex="1" parent="xGXHTZ3CqMaXARI-7lZG-23">
          <mxGeometry x="248.1786133960046" y="9.52" width="103.4077555816686" height="19.05" as="geometry" />
        </mxCell>
        <mxCell id="xGXHTZ3CqMaXARI-7lZG-29" value="" style="html=1;shadow=0;dashed=0;shape=mxgraph.atlassian.x;strokeColor=#596780;strokeWidth=2" vertex="1" parent="xGXHTZ3CqMaXARI-7lZG-28">
          <mxGeometry x="1" y="0.5" width="6" height="6" relative="1" as="geometry">
            <mxPoint x="-11" y="-3" as="offset" />
          </mxGeometry>
        </mxCell>
        <mxCell id="xGXHTZ3CqMaXARI-7lZG-30" value="Personel2" style="dashed=0;html=1;fillColor=#F0F2F5;strokeColor=none;align=left;rounded=1;arcSize=10;fontColor=#596780;fontStyle=1;fontSize=8;shadow=0;spacingLeft=3" vertex="1" parent="xGXHTZ3CqMaXARI-7lZG-23">
          <mxGeometry x="124.0893066980023" y="10.47" width="103.4077555816686" height="19.05" as="geometry" />
        </mxCell>
        <mxCell id="xGXHTZ3CqMaXARI-7lZG-31" value="" style="html=1;shadow=0;dashed=0;shape=mxgraph.atlassian.x;strokeColor=#596780;strokeWidth=2" vertex="1" parent="xGXHTZ3CqMaXARI-7lZG-30">
          <mxGeometry x="1" y="0.5" width="6" height="6" relative="1" as="geometry">
            <mxPoint x="-11" y="-3" as="offset" />
          </mxGeometry>
        </mxCell>
      </root>
    </mxGraphModel>
  </diagram>
  <diagram id="eT0EPZ5fEC8sPVbmBvVT" name="Denetçi">
    <mxGraphModel dx="2564" dy="630" grid="1" gridSize="10" guides="1" tooltips="1" connect="1" arrows="1" fold="1" page="1" pageScale="1" pageWidth="1169" pageHeight="827" math="0" shadow="0">
      <root>
        <mxCell id="0" />
        <mxCell id="1" parent="0" />
        <mxCell id="dbugyqw8s3rbR7TIyh4a-11" value="&lt;span style=&quot;white-space: pre;&quot;&gt; &lt;/span&gt;Denetçi adını giriniz" style="rounded=0;whiteSpace=wrap;html=1;shadow=1;fillColor=#f5f5f5;fontColor=#333333;strokeColor=#666666;align=left;" parent="1" vertex="1">
          <mxGeometry x="200" y="120" width="878.965922444183" height="40" as="geometry" />
        </mxCell>
        <mxCell id="dbugyqw8s3rbR7TIyh4a-35" value="&lt;span style=&quot;white-space: pre;&quot;&gt; &lt;/span&gt;Denetçi soyadını giriniz" style="rounded=0;whiteSpace=wrap;html=1;shadow=1;fillColor=#f5f5f5;fontColor=#333333;strokeColor=#666666;align=left;" parent="1" vertex="1">
          <mxGeometry x="200" y="158" width="878.965922444183" height="40" as="geometry" />
        </mxCell>
        <mxCell id="5SJihwAyokBj9vWmKEIJ-1" value="" style="shape=table;startSize=0;container=1;collapsible=0;childLayout=tableLayout;fontSize=16;" parent="1" vertex="1">
          <mxGeometry x="-1160" y="120" width="1120" height="220" as="geometry" />
        </mxCell>
        <mxCell id="5SJihwAyokBj9vWmKEIJ-2" value="" style="shape=tableRow;horizontal=0;startSize=0;swimlaneHead=0;swimlaneBody=0;strokeColor=inherit;top=0;left=0;bottom=0;right=0;collapsible=0;dropTarget=0;fillColor=none;points=[[0,0.5],[1,0.5]];portConstraint=eastwest;fontSize=16;" parent="5SJihwAyokBj9vWmKEIJ-1" vertex="1">
          <mxGeometry width="1120" height="44" as="geometry" />
        </mxCell>
        <mxCell id="5SJihwAyokBj9vWmKEIJ-3" value="Denetçi Adı Soyadı" style="shape=partialRectangle;html=1;whiteSpace=wrap;connectable=0;strokeColor=inherit;overflow=hidden;fillColor=none;top=0;left=0;bottom=0;right=0;pointerEvents=1;fontSize=16;fontStyle=1" parent="5SJihwAyokBj9vWmKEIJ-2" vertex="1">
          <mxGeometry width="224" height="44" as="geometry">
            <mxRectangle width="224" height="44" as="alternateBounds" />
          </mxGeometry>
        </mxCell>
        <mxCell id="a_AnLYpsBO4Tyyq47iIL-2" value="Bölge" style="shape=partialRectangle;html=1;whiteSpace=wrap;connectable=0;strokeColor=inherit;overflow=hidden;fillColor=none;top=0;left=0;bottom=0;right=0;pointerEvents=1;fontSize=16;fontStyle=1" parent="5SJihwAyokBj9vWmKEIJ-2" vertex="1">
          <mxGeometry x="224" width="224" height="44" as="geometry">
            <mxRectangle width="224" height="44" as="alternateBounds" />
          </mxGeometry>
        </mxCell>
        <mxCell id="5SJihwAyokBj9vWmKEIJ-4" value="İl" style="shape=partialRectangle;html=1;whiteSpace=wrap;connectable=0;strokeColor=inherit;overflow=hidden;fillColor=none;top=0;left=0;bottom=0;right=0;pointerEvents=1;fontSize=16;fontStyle=1" parent="5SJihwAyokBj9vWmKEIJ-2" vertex="1">
          <mxGeometry x="448" width="224" height="44" as="geometry">
            <mxRectangle width="224" height="44" as="alternateBounds" />
          </mxGeometry>
        </mxCell>
        <mxCell id="5SJihwAyokBj9vWmKEIJ-7" value="Tags" style="shape=partialRectangle;html=1;whiteSpace=wrap;connectable=0;strokeColor=inherit;overflow=hidden;fillColor=none;top=0;left=0;bottom=0;right=0;pointerEvents=1;fontSize=16;fontStyle=1" parent="5SJihwAyokBj9vWmKEIJ-2" vertex="1">
          <mxGeometry x="672" width="224" height="44" as="geometry">
            <mxRectangle width="224" height="44" as="alternateBounds" />
          </mxGeometry>
        </mxCell>
        <mxCell id="5SJihwAyokBj9vWmKEIJ-8" value="Telefon" style="shape=partialRectangle;html=1;whiteSpace=wrap;connectable=0;strokeColor=inherit;overflow=hidden;fillColor=none;top=0;left=0;bottom=0;right=0;pointerEvents=1;fontSize=16;fontStyle=1" parent="5SJihwAyokBj9vWmKEIJ-2" vertex="1">
          <mxGeometry x="896" width="224" height="44" as="geometry">
            <mxRectangle width="224" height="44" as="alternateBounds" />
          </mxGeometry>
        </mxCell>
        <mxCell id="5SJihwAyokBj9vWmKEIJ-9" value="" style="shape=tableRow;horizontal=0;startSize=0;swimlaneHead=0;swimlaneBody=0;strokeColor=inherit;top=0;left=0;bottom=0;right=0;collapsible=0;dropTarget=0;fillColor=none;points=[[0,0.5],[1,0.5]];portConstraint=eastwest;fontSize=16;" parent="5SJihwAyokBj9vWmKEIJ-1" vertex="1">
          <mxGeometry y="44" width="1120" height="44" as="geometry" />
        </mxCell>
        <mxCell id="5SJihwAyokBj9vWmKEIJ-10" value="Denetçi1" style="shape=partialRectangle;html=1;whiteSpace=wrap;connectable=0;strokeColor=inherit;overflow=hidden;fillColor=none;top=0;left=0;bottom=0;right=0;pointerEvents=1;fontSize=16;fontStyle=4" parent="5SJihwAyokBj9vWmKEIJ-9" vertex="1">
          <mxGeometry width="224" height="44" as="geometry">
            <mxRectangle width="224" height="44" as="alternateBounds" />
          </mxGeometry>
        </mxCell>
        <mxCell id="a_AnLYpsBO4Tyyq47iIL-3" style="shape=partialRectangle;html=1;whiteSpace=wrap;connectable=0;strokeColor=inherit;overflow=hidden;fillColor=none;top=0;left=0;bottom=0;right=0;pointerEvents=1;fontSize=16;" parent="5SJihwAyokBj9vWmKEIJ-9" vertex="1">
          <mxGeometry x="224" width="224" height="44" as="geometry">
            <mxRectangle width="224" height="44" as="alternateBounds" />
          </mxGeometry>
        </mxCell>
        <mxCell id="5SJihwAyokBj9vWmKEIJ-11" style="shape=partialRectangle;html=1;whiteSpace=wrap;connectable=0;strokeColor=inherit;overflow=hidden;fillColor=none;top=0;left=0;bottom=0;right=0;pointerEvents=1;fontSize=16;" parent="5SJihwAyokBj9vWmKEIJ-9" vertex="1">
          <mxGeometry x="448" width="224" height="44" as="geometry">
            <mxRectangle width="224" height="44" as="alternateBounds" />
          </mxGeometry>
        </mxCell>
        <mxCell id="5SJihwAyokBj9vWmKEIJ-14" value="" style="shape=partialRectangle;html=1;whiteSpace=wrap;connectable=0;strokeColor=inherit;overflow=hidden;fillColor=none;top=0;left=0;bottom=0;right=0;pointerEvents=1;fontSize=16;" parent="5SJihwAyokBj9vWmKEIJ-9" vertex="1">
          <mxGeometry x="672" width="224" height="44" as="geometry">
            <mxRectangle width="224" height="44" as="alternateBounds" />
          </mxGeometry>
        </mxCell>
        <mxCell id="5SJihwAyokBj9vWmKEIJ-15" value="" style="shape=partialRectangle;html=1;whiteSpace=wrap;connectable=0;strokeColor=inherit;overflow=hidden;fillColor=none;top=0;left=0;bottom=0;right=0;pointerEvents=1;fontSize=16;" parent="5SJihwAyokBj9vWmKEIJ-9" vertex="1">
          <mxGeometry x="896" width="224" height="44" as="geometry">
            <mxRectangle width="224" height="44" as="alternateBounds" />
          </mxGeometry>
        </mxCell>
        <mxCell id="5SJihwAyokBj9vWmKEIJ-16" value="" style="shape=tableRow;horizontal=0;startSize=0;swimlaneHead=0;swimlaneBody=0;strokeColor=inherit;top=0;left=0;bottom=0;right=0;collapsible=0;dropTarget=0;fillColor=none;points=[[0,0.5],[1,0.5]];portConstraint=eastwest;fontSize=16;" parent="5SJihwAyokBj9vWmKEIJ-1" vertex="1">
          <mxGeometry y="88" width="1120" height="44" as="geometry" />
        </mxCell>
        <mxCell id="5SJihwAyokBj9vWmKEIJ-17" value="Denetçi2" style="shape=partialRectangle;html=1;whiteSpace=wrap;connectable=0;strokeColor=inherit;overflow=hidden;fillColor=none;top=0;left=0;bottom=0;right=0;pointerEvents=1;fontSize=16;fontStyle=4" parent="5SJihwAyokBj9vWmKEIJ-16" vertex="1">
          <mxGeometry width="224" height="44" as="geometry">
            <mxRectangle width="224" height="44" as="alternateBounds" />
          </mxGeometry>
        </mxCell>
        <mxCell id="a_AnLYpsBO4Tyyq47iIL-4" style="shape=partialRectangle;html=1;whiteSpace=wrap;connectable=0;strokeColor=inherit;overflow=hidden;fillColor=none;top=0;left=0;bottom=0;right=0;pointerEvents=1;fontSize=16;" parent="5SJihwAyokBj9vWmKEIJ-16" vertex="1">
          <mxGeometry x="224" width="224" height="44" as="geometry">
            <mxRectangle width="224" height="44" as="alternateBounds" />
          </mxGeometry>
        </mxCell>
        <mxCell id="5SJihwAyokBj9vWmKEIJ-18" style="shape=partialRectangle;html=1;whiteSpace=wrap;connectable=0;strokeColor=inherit;overflow=hidden;fillColor=none;top=0;left=0;bottom=0;right=0;pointerEvents=1;fontSize=16;" parent="5SJihwAyokBj9vWmKEIJ-16" vertex="1">
          <mxGeometry x="448" width="224" height="44" as="geometry">
            <mxRectangle width="224" height="44" as="alternateBounds" />
          </mxGeometry>
        </mxCell>
        <mxCell id="5SJihwAyokBj9vWmKEIJ-21" value="" style="shape=partialRectangle;html=1;whiteSpace=wrap;connectable=0;strokeColor=inherit;overflow=hidden;fillColor=none;top=0;left=0;bottom=0;right=0;pointerEvents=1;fontSize=16;" parent="5SJihwAyokBj9vWmKEIJ-16" vertex="1">
          <mxGeometry x="672" width="224" height="44" as="geometry">
            <mxRectangle width="224" height="44" as="alternateBounds" />
          </mxGeometry>
        </mxCell>
        <mxCell id="5SJihwAyokBj9vWmKEIJ-22" value="" style="shape=partialRectangle;html=1;whiteSpace=wrap;connectable=0;strokeColor=inherit;overflow=hidden;fillColor=none;top=0;left=0;bottom=0;right=0;pointerEvents=1;fontSize=16;" parent="5SJihwAyokBj9vWmKEIJ-16" vertex="1">
          <mxGeometry x="896" width="224" height="44" as="geometry">
            <mxRectangle width="224" height="44" as="alternateBounds" />
          </mxGeometry>
        </mxCell>
        <mxCell id="5SJihwAyokBj9vWmKEIJ-23" style="shape=tableRow;horizontal=0;startSize=0;swimlaneHead=0;swimlaneBody=0;strokeColor=inherit;top=0;left=0;bottom=0;right=0;collapsible=0;dropTarget=0;fillColor=none;points=[[0,0.5],[1,0.5]];portConstraint=eastwest;fontSize=16;" parent="5SJihwAyokBj9vWmKEIJ-1" vertex="1">
          <mxGeometry y="132" width="1120" height="44" as="geometry" />
        </mxCell>
        <mxCell id="5SJihwAyokBj9vWmKEIJ-24" value="Denetçi3" style="shape=partialRectangle;html=1;whiteSpace=wrap;connectable=0;strokeColor=inherit;overflow=hidden;fillColor=none;top=0;left=0;bottom=0;right=0;pointerEvents=1;fontSize=16;fontStyle=4" parent="5SJihwAyokBj9vWmKEIJ-23" vertex="1">
          <mxGeometry width="224" height="44" as="geometry">
            <mxRectangle width="224" height="44" as="alternateBounds" />
          </mxGeometry>
        </mxCell>
        <mxCell id="a_AnLYpsBO4Tyyq47iIL-5" style="shape=partialRectangle;html=1;whiteSpace=wrap;connectable=0;strokeColor=inherit;overflow=hidden;fillColor=none;top=0;left=0;bottom=0;right=0;pointerEvents=1;fontSize=16;" parent="5SJihwAyokBj9vWmKEIJ-23" vertex="1">
          <mxGeometry x="224" width="224" height="44" as="geometry">
            <mxRectangle width="224" height="44" as="alternateBounds" />
          </mxGeometry>
        </mxCell>
        <mxCell id="5SJihwAyokBj9vWmKEIJ-25" style="shape=partialRectangle;html=1;whiteSpace=wrap;connectable=0;strokeColor=inherit;overflow=hidden;fillColor=none;top=0;left=0;bottom=0;right=0;pointerEvents=1;fontSize=16;" parent="5SJihwAyokBj9vWmKEIJ-23" vertex="1">
          <mxGeometry x="448" width="224" height="44" as="geometry">
            <mxRectangle width="224" height="44" as="alternateBounds" />
          </mxGeometry>
        </mxCell>
        <mxCell id="5SJihwAyokBj9vWmKEIJ-28" style="shape=partialRectangle;html=1;whiteSpace=wrap;connectable=0;strokeColor=inherit;overflow=hidden;fillColor=none;top=0;left=0;bottom=0;right=0;pointerEvents=1;fontSize=16;" parent="5SJihwAyokBj9vWmKEIJ-23" vertex="1">
          <mxGeometry x="672" width="224" height="44" as="geometry">
            <mxRectangle width="224" height="44" as="alternateBounds" />
          </mxGeometry>
        </mxCell>
        <mxCell id="5SJihwAyokBj9vWmKEIJ-29" style="shape=partialRectangle;html=1;whiteSpace=wrap;connectable=0;strokeColor=inherit;overflow=hidden;fillColor=none;top=0;left=0;bottom=0;right=0;pointerEvents=1;fontSize=16;" parent="5SJihwAyokBj9vWmKEIJ-23" vertex="1">
          <mxGeometry x="896" width="224" height="44" as="geometry">
            <mxRectangle width="224" height="44" as="alternateBounds" />
          </mxGeometry>
        </mxCell>
        <mxCell id="5SJihwAyokBj9vWmKEIJ-30" style="shape=tableRow;horizontal=0;startSize=0;swimlaneHead=0;swimlaneBody=0;strokeColor=inherit;top=0;left=0;bottom=0;right=0;collapsible=0;dropTarget=0;fillColor=none;points=[[0,0.5],[1,0.5]];portConstraint=eastwest;fontSize=16;" parent="5SJihwAyokBj9vWmKEIJ-1" vertex="1">
          <mxGeometry y="176" width="1120" height="44" as="geometry" />
        </mxCell>
        <mxCell id="5SJihwAyokBj9vWmKEIJ-31" style="shape=partialRectangle;html=1;whiteSpace=wrap;connectable=0;strokeColor=inherit;overflow=hidden;fillColor=none;top=0;left=0;bottom=0;right=0;pointerEvents=1;fontSize=16;" parent="5SJihwAyokBj9vWmKEIJ-30" vertex="1">
          <mxGeometry width="224" height="44" as="geometry">
            <mxRectangle width="224" height="44" as="alternateBounds" />
          </mxGeometry>
        </mxCell>
        <mxCell id="a_AnLYpsBO4Tyyq47iIL-6" style="shape=partialRectangle;html=1;whiteSpace=wrap;connectable=0;strokeColor=inherit;overflow=hidden;fillColor=none;top=0;left=0;bottom=0;right=0;pointerEvents=1;fontSize=16;" parent="5SJihwAyokBj9vWmKEIJ-30" vertex="1">
          <mxGeometry x="224" width="224" height="44" as="geometry">
            <mxRectangle width="224" height="44" as="alternateBounds" />
          </mxGeometry>
        </mxCell>
        <mxCell id="5SJihwAyokBj9vWmKEIJ-32" style="shape=partialRectangle;html=1;whiteSpace=wrap;connectable=0;strokeColor=inherit;overflow=hidden;fillColor=none;top=0;left=0;bottom=0;right=0;pointerEvents=1;fontSize=16;" parent="5SJihwAyokBj9vWmKEIJ-30" vertex="1">
          <mxGeometry x="448" width="224" height="44" as="geometry">
            <mxRectangle width="224" height="44" as="alternateBounds" />
          </mxGeometry>
        </mxCell>
        <mxCell id="5SJihwAyokBj9vWmKEIJ-35" style="shape=partialRectangle;html=1;whiteSpace=wrap;connectable=0;strokeColor=inherit;overflow=hidden;fillColor=none;top=0;left=0;bottom=0;right=0;pointerEvents=1;fontSize=16;" parent="5SJihwAyokBj9vWmKEIJ-30" vertex="1">
          <mxGeometry x="672" width="224" height="44" as="geometry">
            <mxRectangle width="224" height="44" as="alternateBounds" />
          </mxGeometry>
        </mxCell>
        <mxCell id="5SJihwAyokBj9vWmKEIJ-36" style="shape=partialRectangle;html=1;whiteSpace=wrap;connectable=0;strokeColor=inherit;overflow=hidden;fillColor=none;top=0;left=0;bottom=0;right=0;pointerEvents=1;fontSize=16;" parent="5SJihwAyokBj9vWmKEIJ-30" vertex="1">
          <mxGeometry x="896" width="224" height="44" as="geometry">
            <mxRectangle width="224" height="44" as="alternateBounds" />
          </mxGeometry>
        </mxCell>
        <mxCell id="5SJihwAyokBj9vWmKEIJ-37" value="Denetçi Ekle" style="rounded=1;whiteSpace=wrap;html=1;" parent="1" vertex="1">
          <mxGeometry x="-1160" y="40" width="120" height="40" as="geometry" />
        </mxCell>
        <mxCell id="a_AnLYpsBO4Tyyq47iIL-1" value="Denetçi Sayfası" style="rounded=0;whiteSpace=wrap;html=1;fillColor=#dae8fc;strokeColor=#6c8ebf;movable=1;resizable=1;rotatable=1;deletable=1;editable=1;locked=0;connectable=1;" parent="1" vertex="1">
          <mxGeometry x="-1160" width="1151" height="40" as="geometry" />
        </mxCell>
        <mxCell id="dbugyqw8s3rbR7TIyh4a-1" value="" style="group" parent="1" vertex="1" connectable="0">
          <mxGeometry x="10" y="120" width="160" height="240" as="geometry" />
        </mxCell>
        <mxCell id="dbugyqw8s3rbR7TIyh4a-2" value="Denetçi Adı" style="rounded=0;whiteSpace=wrap;html=1;" parent="dbugyqw8s3rbR7TIyh4a-1" vertex="1">
          <mxGeometry width="160" height="40" as="geometry" />
        </mxCell>
        <mxCell id="dbugyqw8s3rbR7TIyh4a-3" value="Bölge" style="rounded=0;whiteSpace=wrap;html=1;" parent="dbugyqw8s3rbR7TIyh4a-1" vertex="1">
          <mxGeometry y="238" width="160" height="40" as="geometry" />
        </mxCell>
        <mxCell id="dbugyqw8s3rbR7TIyh4a-4" value="Adres" style="rounded=0;whiteSpace=wrap;html=1;" parent="dbugyqw8s3rbR7TIyh4a-1" vertex="1">
          <mxGeometry y="198" width="160" height="40" as="geometry" />
        </mxCell>
        <mxCell id="dbugyqw8s3rbR7TIyh4a-5" value="Mahalle" style="rounded=0;whiteSpace=wrap;html=1;" parent="dbugyqw8s3rbR7TIyh4a-1" vertex="1">
          <mxGeometry y="158" width="160" height="40" as="geometry" />
        </mxCell>
        <mxCell id="dbugyqw8s3rbR7TIyh4a-6" value="İl" style="rounded=0;whiteSpace=wrap;html=1;" parent="dbugyqw8s3rbR7TIyh4a-1" vertex="1">
          <mxGeometry y="78" width="160" height="40" as="geometry" />
        </mxCell>
        <mxCell id="dbugyqw8s3rbR7TIyh4a-7" value="İlçe" style="rounded=0;whiteSpace=wrap;html=1;" parent="dbugyqw8s3rbR7TIyh4a-1" vertex="1">
          <mxGeometry y="118" width="160" height="40" as="geometry" />
        </mxCell>
        <mxCell id="dbugyqw8s3rbR7TIyh4a-34" value="Denetçi Soyadı" style="rounded=0;whiteSpace=wrap;html=1;" parent="dbugyqw8s3rbR7TIyh4a-1" vertex="1">
          <mxGeometry y="38" width="160" height="40" as="geometry" />
        </mxCell>
        <mxCell id="dbugyqw8s3rbR7TIyh4a-8" value="Telefon" style="rounded=0;whiteSpace=wrap;html=1;" parent="1" vertex="1">
          <mxGeometry x="10" y="398" width="160" height="40" as="geometry" />
        </mxCell>
        <mxCell id="dbugyqw8s3rbR7TIyh4a-9" value="Tags" style="rounded=0;whiteSpace=wrap;html=1;" parent="1" vertex="1">
          <mxGeometry x="10" y="480" width="160" height="40" as="geometry" />
        </mxCell>
        <mxCell id="dbugyqw8s3rbR7TIyh4a-32" value="Denetçi Ekleme PopUpSayfası" style="rounded=0;whiteSpace=wrap;html=1;fillColor=#dae8fc;strokeColor=#6c8ebf;movable=1;resizable=1;rotatable=1;deletable=1;editable=1;locked=0;connectable=1;" parent="1" vertex="1">
          <mxGeometry x="10" width="1151" height="40" as="geometry" />
        </mxCell>
        <mxCell id="dbugyqw8s3rbR7TIyh4a-33" value="Denetçi Ekle" style="rounded=1;whiteSpace=wrap;html=1;" parent="1" vertex="1">
          <mxGeometry x="10" y="40" width="120" height="40" as="geometry" />
        </mxCell>
        <mxCell id="dbugyqw8s3rbR7TIyh4a-12" value="&lt;span style=&quot;white-space: pre;&quot;&gt; &lt;/span&gt;İl seçiniz" style="rounded=0;whiteSpace=wrap;html=1;shadow=1;fillColor=#f5f5f5;fontColor=#333333;strokeColor=#666666;align=left;" parent="1" vertex="1">
          <mxGeometry x="200" y="198" width="878.965922444183" height="40" as="geometry" />
        </mxCell>
        <mxCell id="dbugyqw8s3rbR7TIyh4a-13" value="&lt;span style=&quot;white-space: pre;&quot;&gt; &lt;/span&gt;İlçe seçiniz" style="rounded=0;whiteSpace=wrap;html=1;shadow=1;fillColor=#f5f5f5;fontColor=#333333;strokeColor=#666666;align=left;" parent="1" vertex="1">
          <mxGeometry x="200" y="238" width="878.965922444183" height="40" as="geometry" />
        </mxCell>
        <mxCell id="dbugyqw8s3rbR7TIyh4a-14" value="&lt;span style=&quot;white-space: pre;&quot;&gt; &lt;/span&gt;Mahalle seçiniz" style="rounded=0;whiteSpace=wrap;html=1;shadow=1;fillColor=#f5f5f5;fontColor=#333333;strokeColor=#666666;align=left;" parent="1" vertex="1">
          <mxGeometry x="200" y="278" width="878.965922444183" height="40" as="geometry" />
        </mxCell>
        <mxCell id="dbugyqw8s3rbR7TIyh4a-15" value="&lt;span style=&quot;white-space: pre;&quot;&gt; &lt;/span&gt;Adres giriniz" style="rounded=0;whiteSpace=wrap;html=1;shadow=1;fillColor=#f5f5f5;fontColor=#333333;strokeColor=#666666;align=left;" parent="1" vertex="1">
          <mxGeometry x="200" y="318" width="878.965922444183" height="40" as="geometry" />
        </mxCell>
        <mxCell id="dbugyqw8s3rbR7TIyh4a-16" value="&lt;span style=&quot;white-space: pre;&quot;&gt; &lt;/span&gt;Bölge giriniz" style="rounded=0;whiteSpace=wrap;html=1;shadow=1;fillColor=#f5f5f5;fontColor=#333333;strokeColor=#666666;align=left;" parent="1" vertex="1">
          <mxGeometry x="200" y="358" width="878.965922444183" height="40" as="geometry" />
        </mxCell>
        <mxCell id="dbugyqw8s3rbR7TIyh4a-17" value="&lt;span style=&quot;white-space: pre;&quot;&gt; &lt;/span&gt;+90&amp;nbsp;" style="rounded=0;whiteSpace=wrap;html=1;shadow=1;fillColor=#f5f5f5;fontColor=#333333;strokeColor=#666666;align=left;" parent="1" vertex="1">
          <mxGeometry x="200" y="398" width="878.965922444183" height="40" as="geometry" />
        </mxCell>
        <mxCell id="dbugyqw8s3rbR7TIyh4a-19" value="" style="group" parent="1" vertex="1" connectable="0">
          <mxGeometry x="200" y="480" width="878.965922444183" height="40" as="geometry" />
        </mxCell>
        <mxCell id="dbugyqw8s3rbR7TIyh4a-20" value="" style="shape=image;html=1;verticalAlign=top;verticalLabelPosition=bottom;labelBackgroundColor=#ffffff;imageAspect=0;aspect=fixed;image=https://cdn4.iconfinder.com/data/icons/evil-icons-user-interface/64/minus-128.png" parent="dbugyqw8s3rbR7TIyh4a-19" vertex="1">
          <mxGeometry x="793.5109022065541" y="11.428571428571427" width="21.42857142857143" height="21.42857142857143" as="geometry" />
        </mxCell>
        <mxCell id="dbugyqw8s3rbR7TIyh4a-21" value="" style="rounded=0;whiteSpace=wrap;html=1;shadow=1;" parent="dbugyqw8s3rbR7TIyh4a-19" vertex="1">
          <mxGeometry width="878.965922444183" height="38.095238095238095" as="geometry" />
        </mxCell>
        <mxCell id="dbugyqw8s3rbR7TIyh4a-22" value="Removable tag1" style="dashed=0;html=1;fillColor=#F0F2F5;strokeColor=none;align=left;rounded=1;arcSize=10;fontColor=#596780;fontStyle=1;fontSize=8;shadow=0;spacingLeft=3" parent="dbugyqw8s3rbR7TIyh4a-19" vertex="1">
          <mxGeometry x="24.414571092831952" y="9.52" width="89.3339600470035" height="19.05" as="geometry" />
        </mxCell>
        <mxCell id="dbugyqw8s3rbR7TIyh4a-23" value="" style="html=1;shadow=0;dashed=0;shape=mxgraph.atlassian.x;strokeColor=#596780;strokeWidth=2" parent="dbugyqw8s3rbR7TIyh4a-22" vertex="1">
          <mxGeometry x="1" y="0.5" width="6" height="6" relative="1" as="geometry">
            <mxPoint x="-11" y="-3" as="offset" />
          </mxGeometry>
        </mxCell>
        <mxCell id="dbugyqw8s3rbR7TIyh4a-24" value="Removable tag4" style="dashed=0;html=1;fillColor=#F0F2F5;strokeColor=none;align=left;rounded=1;arcSize=10;fontColor=#596780;fontStyle=1;fontSize=8;shadow=0;spacingLeft=3" parent="dbugyqw8s3rbR7TIyh4a-19" vertex="1">
          <mxGeometry x="248.1786133960046" y="9.52" width="103.4077555816686" height="19.05" as="geometry" />
        </mxCell>
        <mxCell id="dbugyqw8s3rbR7TIyh4a-25" value="" style="html=1;shadow=0;dashed=0;shape=mxgraph.atlassian.x;strokeColor=#596780;strokeWidth=2" parent="dbugyqw8s3rbR7TIyh4a-24" vertex="1">
          <mxGeometry x="1" y="0.5" width="6" height="6" relative="1" as="geometry">
            <mxPoint x="-11" y="-3" as="offset" />
          </mxGeometry>
        </mxCell>
        <mxCell id="dbugyqw8s3rbR7TIyh4a-26" value="Removable tag2" style="dashed=0;html=1;fillColor=#F0F2F5;strokeColor=none;align=left;rounded=1;arcSize=10;fontColor=#596780;fontStyle=1;fontSize=8;shadow=0;spacingLeft=3" parent="dbugyqw8s3rbR7TIyh4a-19" vertex="1">
          <mxGeometry x="124.0893066980023" y="10.47" width="103.4077555816686" height="19.05" as="geometry" />
        </mxCell>
        <mxCell id="dbugyqw8s3rbR7TIyh4a-27" value="" style="html=1;shadow=0;dashed=0;shape=mxgraph.atlassian.x;strokeColor=#596780;strokeWidth=2" parent="dbugyqw8s3rbR7TIyh4a-26" vertex="1">
          <mxGeometry x="1" y="0.5" width="6" height="6" relative="1" as="geometry">
            <mxPoint x="-11" y="-3" as="offset" />
          </mxGeometry>
        </mxCell>
        <mxCell id="dbugyqw8s3rbR7TIyh4a-28" value="" style="shape=triangle;direction=south;fillColor=#000000;strokeColor=none;html=1;sketch=0;" parent="1" vertex="1">
          <mxGeometry x="1050.011750881316" y="209.75" width="29.988249118683893" height="16.5" as="geometry" />
        </mxCell>
        <mxCell id="dbugyqw8s3rbR7TIyh4a-29" value="" style="shape=triangle;direction=south;fillColor=#000000;strokeColor=none;html=1;sketch=0;" parent="1" vertex="1">
          <mxGeometry x="1050.011750881316" y="249.75" width="29.988249118683893" height="16.5" as="geometry" />
        </mxCell>
        <mxCell id="dbugyqw8s3rbR7TIyh4a-30" value="" style="shape=triangle;direction=south;fillColor=#000000;strokeColor=none;html=1;sketch=0;fillStyle=solid;" parent="1" vertex="1">
          <mxGeometry x="1048.9776733254994" y="289.75" width="29.988249118683893" height="16.5" as="geometry" />
        </mxCell>
        <mxCell id="dbugyqw8s3rbR7TIyh4a-38" value="Sertifika Ekle" style="rounded=0;whiteSpace=wrap;html=1;fillColor=#cce5ff;strokeColor=#36393d;" parent="1" vertex="1">
          <mxGeometry x="11.03" y="560" width="160" height="40" as="geometry" />
        </mxCell>
        <mxCell id="dbugyqw8s3rbR7TIyh4a-39" value="Sertifika Adı" style="rounded=0;whiteSpace=wrap;html=1;" parent="1" vertex="1">
          <mxGeometry x="11.03" y="600" width="160" height="40" as="geometry" />
        </mxCell>
        <mxCell id="dbugyqw8s3rbR7TIyh4a-40" value="Sertiifka Alınma Tarihi" style="rounded=0;whiteSpace=wrap;html=1;" parent="1" vertex="1">
          <mxGeometry x="11.03" y="678" width="160" height="40" as="geometry" />
        </mxCell>
        <mxCell id="dbugyqw8s3rbR7TIyh4a-41" value="Alınan Kurum" style="rounded=0;whiteSpace=wrap;html=1;" parent="1" vertex="1">
          <mxGeometry x="11.03" y="638" width="160" height="40" as="geometry" />
        </mxCell>
        <mxCell id="dbugyqw8s3rbR7TIyh4a-42" value="&lt;span style=&quot;&quot;&gt; &lt;/span&gt;Sertifika Adı&amp;nbsp;giriniz" style="rounded=0;whiteSpace=wrap;html=1;shadow=1;fillColor=#f5f5f5;fontColor=#333333;strokeColor=#666666;align=left;" parent="1" vertex="1">
          <mxGeometry x="201.03" y="600" width="878.965922444183" height="40" as="geometry" />
        </mxCell>
        <mxCell id="dbugyqw8s3rbR7TIyh4a-43" value="&lt;span style=&quot;&quot;&gt; &lt;/span&gt;Alınan Kurum&amp;nbsp;giriniz" style="rounded=0;whiteSpace=wrap;html=1;shadow=1;fillColor=#f5f5f5;fontColor=#333333;strokeColor=#666666;align=left;" parent="1" vertex="1">
          <mxGeometry x="201.03" y="638" width="878.965922444183" height="40" as="geometry" />
        </mxCell>
        <mxCell id="dbugyqw8s3rbR7TIyh4a-44" value="Tarih giriniz" style="rounded=0;whiteSpace=wrap;html=1;shadow=1;fillColor=#f5f5f5;fontColor=#333333;strokeColor=#666666;align=left;" parent="1" vertex="1">
          <mxGeometry x="201.03" y="678" width="878.965922444183" height="40" as="geometry" />
        </mxCell>
        <mxCell id="dbugyqw8s3rbR7TIyh4a-45" value="Sertifika Geçerlilik Tarihi" style="rounded=0;whiteSpace=wrap;html=1;" parent="1" vertex="1">
          <mxGeometry x="11.03" y="718" width="160" height="40" as="geometry" />
        </mxCell>
        <mxCell id="dbugyqw8s3rbR7TIyh4a-46" value="Tarih giriniz" style="rounded=0;whiteSpace=wrap;html=1;shadow=1;fillColor=#f5f5f5;fontColor=#333333;strokeColor=#666666;align=left;" parent="1" vertex="1">
          <mxGeometry x="201.03" y="718" width="878.965922444183" height="40" as="geometry" />
        </mxCell>
        <mxCell id="CZiGQ5FHp3CokRicVk39-1" value="mail" style="rounded=0;whiteSpace=wrap;html=1;" parent="1" vertex="1">
          <mxGeometry x="180" y="60" width="160" height="40" as="geometry" />
        </mxCell>
        <mxCell id="pNNkGeGXLhHmV4IJ0Z0W-1" value="E-Posta" style="rounded=0;whiteSpace=wrap;html=1;" vertex="1" parent="1">
          <mxGeometry x="10" y="440" width="160" height="40" as="geometry" />
        </mxCell>
        <mxCell id="pNNkGeGXLhHmV4IJ0Z0W-2" value="&lt;span style=&quot;white-space: pre;&quot;&gt;___@___&lt;/span&gt;" style="rounded=0;whiteSpace=wrap;html=1;shadow=1;fillColor=#f5f5f5;fontColor=#333333;strokeColor=#666666;align=left;" vertex="1" parent="1">
          <mxGeometry x="200" y="440" width="878.965922444183" height="40" as="geometry" />
        </mxCell>
      </root>
    </mxGraphModel>
  </diagram>
  <diagram id="hhGCvGLeL161OBoacYOi" name="Ölçümler">
    <mxGraphModel dx="1434" dy="756" grid="1" gridSize="10" guides="1" tooltips="1" connect="1" arrows="1" fold="1" page="1" pageScale="1" pageWidth="1169" pageHeight="827" math="0" shadow="0">
      <root>
        <mxCell id="0" />
        <mxCell id="1" parent="0" />
        <mxCell id="xxoliv4Ucth4p_jN6r0--1" value="Ölçüm Ekleme Sayfası" style="rounded=0;whiteSpace=wrap;html=1;fillColor=#dae8fc;strokeColor=#6c8ebf;movable=1;resizable=1;rotatable=1;deletable=1;editable=1;locked=0;connectable=1;" parent="1" vertex="1">
          <mxGeometry x="40" width="1080" height="40" as="geometry" />
        </mxCell>
        <mxCell id="3RS33FUQFM2WRNRjqzGx-1" value="" style="rounded=0;whiteSpace=wrap;html=1;shadow=0;perimeter=ellipsePerimeter;movable=1;resizable=1;rotatable=1;deletable=1;editable=1;locked=0;connectable=1;strokeWidth=4;fillColor=#dee9f7;strokeColor=#6c8ebf;" vertex="1" parent="1">
          <mxGeometry x="40" y="120" width="1080" height="640" as="geometry" />
        </mxCell>
        <mxCell id="3RS33FUQFM2WRNRjqzGx-2" value="Ölçümler" style="text;html=1;strokeColor=none;fillColor=none;align=center;verticalAlign=middle;whiteSpace=wrap;rounded=0;fontStyle=1;fontSize=14;labelPosition=center;verticalLabelPosition=middle;" vertex="1" parent="1">
          <mxGeometry x="50" y="131.75" width="110" height="30" as="geometry" />
        </mxCell>
        <mxCell id="3RS33FUQFM2WRNRjqzGx-3" value="Ölçüm Yeri" style="rounded=1;whiteSpace=wrap;html=1;fontStyle=1;fontSize=13;fillColor=#ffe6cc;strokeColor=#d79b00;" vertex="1" parent="1">
          <mxGeometry x="200" y="200" width="150" height="40" as="geometry" />
        </mxCell>
        <mxCell id="3RS33FUQFM2WRNRjqzGx-4" value="Asgari Ölçüm Değeri" style="rounded=1;whiteSpace=wrap;html=1;fontStyle=1;fontSize=13;fillColor=#ffe6cc;strokeColor=#d79b00;" vertex="1" parent="1">
          <mxGeometry x="350" y="200" width="150" height="40" as="geometry" />
        </mxCell>
        <mxCell id="3RS33FUQFM2WRNRjqzGx-5" value="Standart Ölçüm Değeri" style="rounded=1;whiteSpace=wrap;html=1;fontStyle=1;fontSize=13;fillColor=#ffe6cc;strokeColor=#d79b00;" vertex="1" parent="1">
          <mxGeometry x="500" y="200" width="150" height="40" as="geometry" />
        </mxCell>
        <mxCell id="3RS33FUQFM2WRNRjqzGx-6" value="Azami Ölçüm Değeri" style="rounded=1;whiteSpace=wrap;html=1;fontStyle=1;fontSize=13;fillColor=#ffe6cc;strokeColor=#d79b00;" vertex="1" parent="1">
          <mxGeometry x="650" y="200" width="150" height="40" as="geometry" />
        </mxCell>
        <mxCell id="3RS33FUQFM2WRNRjqzGx-7" value="" style="shape=table;startSize=0;container=1;collapsible=0;childLayout=tableLayout;fontSize=14;" vertex="1" parent="1">
          <mxGeometry x="50" y="240" width="750" height="280" as="geometry" />
        </mxCell>
        <mxCell id="3RS33FUQFM2WRNRjqzGx-8" value="" style="shape=tableRow;horizontal=0;startSize=0;swimlaneHead=0;swimlaneBody=0;strokeColor=inherit;top=0;left=0;bottom=0;right=0;collapsible=0;dropTarget=0;fillColor=none;points=[[0,0.5],[1,0.5]];portConstraint=eastwest;fontSize=16;" vertex="1" parent="3RS33FUQFM2WRNRjqzGx-7">
          <mxGeometry width="750" height="40" as="geometry" />
        </mxCell>
        <mxCell id="3RS33FUQFM2WRNRjqzGx-9" value="Sıcaklık &lt;sup&gt;0&lt;/sup&gt;C" style="shape=partialRectangle;html=1;whiteSpace=wrap;connectable=0;strokeColor=inherit;overflow=hidden;fillColor=none;top=0;left=0;bottom=0;right=0;pointerEvents=1;fontSize=16;" vertex="1" parent="3RS33FUQFM2WRNRjqzGx-8">
          <mxGeometry width="150" height="40" as="geometry">
            <mxRectangle width="150" height="40" as="alternateBounds" />
          </mxGeometry>
        </mxCell>
        <mxCell id="3RS33FUQFM2WRNRjqzGx-10" value="Buzdolabı" style="shape=partialRectangle;html=1;whiteSpace=wrap;connectable=0;strokeColor=inherit;overflow=hidden;fillColor=none;top=0;left=0;bottom=0;right=0;pointerEvents=1;fontSize=14;" vertex="1" parent="3RS33FUQFM2WRNRjqzGx-8">
          <mxGeometry x="150" width="150" height="40" as="geometry">
            <mxRectangle width="150" height="40" as="alternateBounds" />
          </mxGeometry>
        </mxCell>
        <mxCell id="3RS33FUQFM2WRNRjqzGx-11" value="0" style="shape=partialRectangle;html=1;whiteSpace=wrap;connectable=0;strokeColor=inherit;overflow=hidden;fillColor=none;top=0;left=0;bottom=0;right=0;pointerEvents=1;fontSize=14;" vertex="1" parent="3RS33FUQFM2WRNRjqzGx-8">
          <mxGeometry x="300" width="150" height="40" as="geometry">
            <mxRectangle width="150" height="40" as="alternateBounds" />
          </mxGeometry>
        </mxCell>
        <mxCell id="3RS33FUQFM2WRNRjqzGx-12" style="shape=partialRectangle;html=1;whiteSpace=wrap;connectable=0;strokeColor=inherit;overflow=hidden;fillColor=none;top=0;left=0;bottom=0;right=0;pointerEvents=1;fontSize=14;" vertex="1" parent="3RS33FUQFM2WRNRjqzGx-8">
          <mxGeometry x="450" width="150" height="40" as="geometry">
            <mxRectangle width="150" height="40" as="alternateBounds" />
          </mxGeometry>
        </mxCell>
        <mxCell id="3RS33FUQFM2WRNRjqzGx-13" value="+4" style="shape=partialRectangle;html=1;whiteSpace=wrap;connectable=0;strokeColor=inherit;overflow=hidden;fillColor=none;top=0;left=0;bottom=0;right=0;pointerEvents=1;fontSize=14;" vertex="1" parent="3RS33FUQFM2WRNRjqzGx-8">
          <mxGeometry x="600" width="150" height="40" as="geometry">
            <mxRectangle width="150" height="40" as="alternateBounds" />
          </mxGeometry>
        </mxCell>
        <mxCell id="3RS33FUQFM2WRNRjqzGx-40" style="shape=tableRow;horizontal=0;startSize=0;swimlaneHead=0;swimlaneBody=0;strokeColor=inherit;top=0;left=0;bottom=0;right=0;collapsible=0;dropTarget=0;fillColor=none;points=[[0,0.5],[1,0.5]];portConstraint=eastwest;fontSize=16;" vertex="1" parent="3RS33FUQFM2WRNRjqzGx-7">
          <mxGeometry y="40" width="750" height="40" as="geometry" />
        </mxCell>
        <mxCell id="3RS33FUQFM2WRNRjqzGx-41" value="Sıcaklık&amp;nbsp;&lt;sup style=&quot;border-color: var(--border-color);&quot;&gt;0&lt;/sup&gt;C" style="shape=partialRectangle;html=1;whiteSpace=wrap;connectable=0;strokeColor=inherit;overflow=hidden;fillColor=none;top=0;left=0;bottom=0;right=0;pointerEvents=1;fontSize=16;" vertex="1" parent="3RS33FUQFM2WRNRjqzGx-40">
          <mxGeometry width="150" height="40" as="geometry">
            <mxRectangle width="150" height="40" as="alternateBounds" />
          </mxGeometry>
        </mxCell>
        <mxCell id="3RS33FUQFM2WRNRjqzGx-42" value="Derin Dondurucu" style="shape=partialRectangle;html=1;whiteSpace=wrap;connectable=0;strokeColor=inherit;overflow=hidden;fillColor=none;top=0;left=0;bottom=0;right=0;pointerEvents=1;fontSize=14;" vertex="1" parent="3RS33FUQFM2WRNRjqzGx-40">
          <mxGeometry x="150" width="150" height="40" as="geometry">
            <mxRectangle width="150" height="40" as="alternateBounds" />
          </mxGeometry>
        </mxCell>
        <mxCell id="3RS33FUQFM2WRNRjqzGx-43" style="shape=partialRectangle;html=1;whiteSpace=wrap;connectable=0;strokeColor=inherit;overflow=hidden;fillColor=none;top=0;left=0;bottom=0;right=0;pointerEvents=1;fontSize=14;" vertex="1" parent="3RS33FUQFM2WRNRjqzGx-40">
          <mxGeometry x="300" width="150" height="40" as="geometry">
            <mxRectangle width="150" height="40" as="alternateBounds" />
          </mxGeometry>
        </mxCell>
        <mxCell id="3RS33FUQFM2WRNRjqzGx-44" style="shape=partialRectangle;html=1;whiteSpace=wrap;connectable=0;strokeColor=inherit;overflow=hidden;fillColor=none;top=0;left=0;bottom=0;right=0;pointerEvents=1;fontSize=14;" vertex="1" parent="3RS33FUQFM2WRNRjqzGx-40">
          <mxGeometry x="450" width="150" height="40" as="geometry">
            <mxRectangle width="150" height="40" as="alternateBounds" />
          </mxGeometry>
        </mxCell>
        <mxCell id="3RS33FUQFM2WRNRjqzGx-45" value="-18" style="shape=partialRectangle;html=1;whiteSpace=wrap;connectable=0;strokeColor=inherit;overflow=hidden;fillColor=none;top=0;left=0;bottom=0;right=0;pointerEvents=1;fontSize=14;" vertex="1" parent="3RS33FUQFM2WRNRjqzGx-40">
          <mxGeometry x="600" width="150" height="40" as="geometry">
            <mxRectangle width="150" height="40" as="alternateBounds" />
          </mxGeometry>
        </mxCell>
        <mxCell id="3RS33FUQFM2WRNRjqzGx-46" style="shape=tableRow;horizontal=0;startSize=0;swimlaneHead=0;swimlaneBody=0;strokeColor=inherit;top=0;left=0;bottom=0;right=0;collapsible=0;dropTarget=0;fillColor=none;points=[[0,0.5],[1,0.5]];portConstraint=eastwest;fontSize=16;" vertex="1" parent="3RS33FUQFM2WRNRjqzGx-7">
          <mxGeometry y="80" width="750" height="40" as="geometry" />
        </mxCell>
        <mxCell id="3RS33FUQFM2WRNRjqzGx-47" value="Sıcaklık&amp;nbsp;&lt;sup style=&quot;border-color: var(--border-color);&quot;&gt;0&lt;/sup&gt;C" style="shape=partialRectangle;html=1;whiteSpace=wrap;connectable=0;strokeColor=inherit;overflow=hidden;fillColor=none;top=0;left=0;bottom=0;right=0;pointerEvents=1;fontSize=16;" vertex="1" parent="3RS33FUQFM2WRNRjqzGx-46">
          <mxGeometry width="150" height="40" as="geometry">
            <mxRectangle width="150" height="40" as="alternateBounds" />
          </mxGeometry>
        </mxCell>
        <mxCell id="3RS33FUQFM2WRNRjqzGx-48" value="Servis Edilen Yemek" style="shape=partialRectangle;html=1;whiteSpace=wrap;connectable=0;strokeColor=inherit;overflow=hidden;fillColor=none;top=0;left=0;bottom=0;right=0;pointerEvents=1;fontSize=14;" vertex="1" parent="3RS33FUQFM2WRNRjqzGx-46">
          <mxGeometry x="150" width="150" height="40" as="geometry">
            <mxRectangle width="150" height="40" as="alternateBounds" />
          </mxGeometry>
        </mxCell>
        <mxCell id="3RS33FUQFM2WRNRjqzGx-49" value="63" style="shape=partialRectangle;html=1;whiteSpace=wrap;connectable=0;strokeColor=inherit;overflow=hidden;fillColor=none;top=0;left=0;bottom=0;right=0;pointerEvents=1;fontSize=14;" vertex="1" parent="3RS33FUQFM2WRNRjqzGx-46">
          <mxGeometry x="300" width="150" height="40" as="geometry">
            <mxRectangle width="150" height="40" as="alternateBounds" />
          </mxGeometry>
        </mxCell>
        <mxCell id="3RS33FUQFM2WRNRjqzGx-50" style="shape=partialRectangle;html=1;whiteSpace=wrap;connectable=0;strokeColor=inherit;overflow=hidden;fillColor=none;top=0;left=0;bottom=0;right=0;pointerEvents=1;fontSize=14;" vertex="1" parent="3RS33FUQFM2WRNRjqzGx-46">
          <mxGeometry x="450" width="150" height="40" as="geometry">
            <mxRectangle width="150" height="40" as="alternateBounds" />
          </mxGeometry>
        </mxCell>
        <mxCell id="3RS33FUQFM2WRNRjqzGx-51" style="shape=partialRectangle;html=1;whiteSpace=wrap;connectable=0;strokeColor=inherit;overflow=hidden;fillColor=none;top=0;left=0;bottom=0;right=0;pointerEvents=1;fontSize=14;" vertex="1" parent="3RS33FUQFM2WRNRjqzGx-46">
          <mxGeometry x="600" width="150" height="40" as="geometry">
            <mxRectangle width="150" height="40" as="alternateBounds" />
          </mxGeometry>
        </mxCell>
        <mxCell id="3RS33FUQFM2WRNRjqzGx-14" value="" style="shape=tableRow;horizontal=0;startSize=0;swimlaneHead=0;swimlaneBody=0;strokeColor=inherit;top=0;left=0;bottom=0;right=0;collapsible=0;dropTarget=0;fillColor=none;points=[[0,0.5],[1,0.5]];portConstraint=eastwest;fontSize=16;" vertex="1" parent="3RS33FUQFM2WRNRjqzGx-7">
          <mxGeometry y="120" width="750" height="40" as="geometry" />
        </mxCell>
        <mxCell id="3RS33FUQFM2WRNRjqzGx-15" value="&lt;font style=&quot;font-size: 14px;&quot;&gt;Nem %RH&lt;/font&gt;" style="shape=partialRectangle;html=1;whiteSpace=wrap;connectable=0;strokeColor=inherit;overflow=hidden;fillColor=none;top=0;left=0;bottom=0;right=0;pointerEvents=1;fontSize=16;" vertex="1" parent="3RS33FUQFM2WRNRjqzGx-14">
          <mxGeometry width="150" height="40" as="geometry">
            <mxRectangle width="150" height="40" as="alternateBounds" />
          </mxGeometry>
        </mxCell>
        <mxCell id="3RS33FUQFM2WRNRjqzGx-16" value="Kuru Gıda Deposu" style="shape=partialRectangle;html=1;whiteSpace=wrap;connectable=0;strokeColor=inherit;overflow=hidden;fillColor=none;top=0;left=0;bottom=0;right=0;pointerEvents=1;fontSize=14;" vertex="1" parent="3RS33FUQFM2WRNRjqzGx-14">
          <mxGeometry x="150" width="150" height="40" as="geometry">
            <mxRectangle width="150" height="40" as="alternateBounds" />
          </mxGeometry>
        </mxCell>
        <mxCell id="3RS33FUQFM2WRNRjqzGx-17" value="" style="shape=partialRectangle;html=1;whiteSpace=wrap;connectable=0;strokeColor=inherit;overflow=hidden;fillColor=none;top=0;left=0;bottom=0;right=0;pointerEvents=1;fontSize=14;" vertex="1" parent="3RS33FUQFM2WRNRjqzGx-14">
          <mxGeometry x="300" width="150" height="40" as="geometry">
            <mxRectangle width="150" height="40" as="alternateBounds" />
          </mxGeometry>
        </mxCell>
        <mxCell id="3RS33FUQFM2WRNRjqzGx-18" value="60" style="shape=partialRectangle;html=1;whiteSpace=wrap;connectable=0;strokeColor=inherit;overflow=hidden;fillColor=none;top=0;left=0;bottom=0;right=0;pointerEvents=1;fontSize=14;" vertex="1" parent="3RS33FUQFM2WRNRjqzGx-14">
          <mxGeometry x="450" width="150" height="40" as="geometry">
            <mxRectangle width="150" height="40" as="alternateBounds" />
          </mxGeometry>
        </mxCell>
        <mxCell id="3RS33FUQFM2WRNRjqzGx-19" style="shape=partialRectangle;html=1;whiteSpace=wrap;connectable=0;strokeColor=inherit;overflow=hidden;fillColor=none;top=0;left=0;bottom=0;right=0;pointerEvents=1;fontSize=14;" vertex="1" parent="3RS33FUQFM2WRNRjqzGx-14">
          <mxGeometry x="600" width="150" height="40" as="geometry">
            <mxRectangle width="150" height="40" as="alternateBounds" />
          </mxGeometry>
        </mxCell>
        <mxCell id="3RS33FUQFM2WRNRjqzGx-20" value="" style="shape=tableRow;horizontal=0;startSize=0;swimlaneHead=0;swimlaneBody=0;strokeColor=inherit;top=0;left=0;bottom=0;right=0;collapsible=0;dropTarget=0;fillColor=none;points=[[0,0.5],[1,0.5]];portConstraint=eastwest;fontSize=16;" vertex="1" parent="3RS33FUQFM2WRNRjqzGx-7">
          <mxGeometry y="160" width="750" height="40" as="geometry" />
        </mxCell>
        <mxCell id="3RS33FUQFM2WRNRjqzGx-21" value="Nakit TL" style="shape=partialRectangle;html=1;whiteSpace=wrap;connectable=0;strokeColor=inherit;overflow=hidden;fillColor=none;top=0;left=0;bottom=0;right=0;pointerEvents=1;fontSize=14;" vertex="1" parent="3RS33FUQFM2WRNRjqzGx-20">
          <mxGeometry width="150" height="40" as="geometry">
            <mxRectangle width="150" height="40" as="alternateBounds" />
          </mxGeometry>
        </mxCell>
        <mxCell id="3RS33FUQFM2WRNRjqzGx-22" value="Çelik Kasa" style="shape=partialRectangle;html=1;whiteSpace=wrap;connectable=0;strokeColor=inherit;overflow=hidden;fillColor=none;top=0;left=0;bottom=0;right=0;pointerEvents=1;fontSize=14;" vertex="1" parent="3RS33FUQFM2WRNRjqzGx-20">
          <mxGeometry x="150" width="150" height="40" as="geometry">
            <mxRectangle width="150" height="40" as="alternateBounds" />
          </mxGeometry>
        </mxCell>
        <mxCell id="3RS33FUQFM2WRNRjqzGx-23" value="" style="shape=partialRectangle;html=1;whiteSpace=wrap;connectable=0;strokeColor=inherit;overflow=hidden;fillColor=none;top=0;left=0;bottom=0;right=0;pointerEvents=1;fontSize=14;" vertex="1" parent="3RS33FUQFM2WRNRjqzGx-20">
          <mxGeometry x="300" width="150" height="40" as="geometry">
            <mxRectangle width="150" height="40" as="alternateBounds" />
          </mxGeometry>
        </mxCell>
        <mxCell id="3RS33FUQFM2WRNRjqzGx-24" style="shape=partialRectangle;html=1;whiteSpace=wrap;connectable=0;strokeColor=inherit;overflow=hidden;fillColor=none;top=0;left=0;bottom=0;right=0;pointerEvents=1;fontSize=14;" vertex="1" parent="3RS33FUQFM2WRNRjqzGx-20">
          <mxGeometry x="450" width="150" height="40" as="geometry">
            <mxRectangle width="150" height="40" as="alternateBounds" />
          </mxGeometry>
        </mxCell>
        <mxCell id="3RS33FUQFM2WRNRjqzGx-25" value="10.000" style="shape=partialRectangle;html=1;whiteSpace=wrap;connectable=0;strokeColor=inherit;overflow=hidden;fillColor=none;top=0;left=0;bottom=0;right=0;pointerEvents=1;fontSize=14;" vertex="1" parent="3RS33FUQFM2WRNRjqzGx-20">
          <mxGeometry x="600" width="150" height="40" as="geometry">
            <mxRectangle width="150" height="40" as="alternateBounds" />
          </mxGeometry>
        </mxCell>
        <mxCell id="3RS33FUQFM2WRNRjqzGx-26" style="shape=tableRow;horizontal=0;startSize=0;swimlaneHead=0;swimlaneBody=0;strokeColor=inherit;top=0;left=0;bottom=0;right=0;collapsible=0;dropTarget=0;fillColor=none;points=[[0,0.5],[1,0.5]];portConstraint=eastwest;fontSize=16;" vertex="1" parent="3RS33FUQFM2WRNRjqzGx-7">
          <mxGeometry y="200" width="750" height="40" as="geometry" />
        </mxCell>
        <mxCell id="3RS33FUQFM2WRNRjqzGx-27" value="Nakit TL" style="shape=partialRectangle;html=1;whiteSpace=wrap;connectable=0;strokeColor=inherit;overflow=hidden;fillColor=none;top=0;left=0;bottom=0;right=0;pointerEvents=1;fontSize=14;" vertex="1" parent="3RS33FUQFM2WRNRjqzGx-26">
          <mxGeometry width="150" height="40" as="geometry">
            <mxRectangle width="150" height="40" as="alternateBounds" />
          </mxGeometry>
        </mxCell>
        <mxCell id="3RS33FUQFM2WRNRjqzGx-28" value="Yazarkasa" style="shape=partialRectangle;html=1;whiteSpace=wrap;connectable=0;strokeColor=inherit;overflow=hidden;fillColor=none;top=0;left=0;bottom=0;right=0;pointerEvents=1;fontSize=14;" vertex="1" parent="3RS33FUQFM2WRNRjqzGx-26">
          <mxGeometry x="150" width="150" height="40" as="geometry">
            <mxRectangle width="150" height="40" as="alternateBounds" />
          </mxGeometry>
        </mxCell>
        <mxCell id="3RS33FUQFM2WRNRjqzGx-29" value="200" style="shape=partialRectangle;html=1;whiteSpace=wrap;connectable=0;strokeColor=inherit;overflow=hidden;fillColor=none;top=0;left=0;bottom=0;right=0;pointerEvents=1;fontSize=14;" vertex="1" parent="3RS33FUQFM2WRNRjqzGx-26">
          <mxGeometry x="300" width="150" height="40" as="geometry">
            <mxRectangle width="150" height="40" as="alternateBounds" />
          </mxGeometry>
        </mxCell>
        <mxCell id="3RS33FUQFM2WRNRjqzGx-30" style="shape=partialRectangle;html=1;whiteSpace=wrap;connectable=0;strokeColor=inherit;overflow=hidden;fillColor=none;top=0;left=0;bottom=0;right=0;pointerEvents=1;fontSize=14;" vertex="1" parent="3RS33FUQFM2WRNRjqzGx-26">
          <mxGeometry x="450" width="150" height="40" as="geometry">
            <mxRectangle width="150" height="40" as="alternateBounds" />
          </mxGeometry>
        </mxCell>
        <mxCell id="3RS33FUQFM2WRNRjqzGx-31" value="800" style="shape=partialRectangle;html=1;whiteSpace=wrap;connectable=0;strokeColor=inherit;overflow=hidden;fillColor=none;top=0;left=0;bottom=0;right=0;pointerEvents=1;fontSize=14;" vertex="1" parent="3RS33FUQFM2WRNRjqzGx-26">
          <mxGeometry x="600" width="150" height="40" as="geometry">
            <mxRectangle width="150" height="40" as="alternateBounds" />
          </mxGeometry>
        </mxCell>
        <mxCell id="3RS33FUQFM2WRNRjqzGx-32" style="shape=tableRow;horizontal=0;startSize=0;swimlaneHead=0;swimlaneBody=0;strokeColor=inherit;top=0;left=0;bottom=0;right=0;collapsible=0;dropTarget=0;fillColor=none;points=[[0,0.5],[1,0.5]];portConstraint=eastwest;fontSize=16;" vertex="1" parent="3RS33FUQFM2WRNRjqzGx-7">
          <mxGeometry y="240" width="750" height="40" as="geometry" />
        </mxCell>
        <mxCell id="3RS33FUQFM2WRNRjqzGx-33" value="pH" style="shape=partialRectangle;html=1;whiteSpace=wrap;connectable=0;strokeColor=inherit;overflow=hidden;fillColor=none;top=0;left=0;bottom=0;right=0;pointerEvents=1;fontSize=14;" vertex="1" parent="3RS33FUQFM2WRNRjqzGx-32">
          <mxGeometry width="150" height="40" as="geometry">
            <mxRectangle width="150" height="40" as="alternateBounds" />
          </mxGeometry>
        </mxCell>
        <mxCell id="3RS33FUQFM2WRNRjqzGx-34" value="Bulaşık Makinesi" style="shape=partialRectangle;html=1;whiteSpace=wrap;connectable=0;strokeColor=inherit;overflow=hidden;fillColor=none;top=0;left=0;bottom=0;right=0;pointerEvents=1;fontSize=14;" vertex="1" parent="3RS33FUQFM2WRNRjqzGx-32">
          <mxGeometry x="150" width="150" height="40" as="geometry">
            <mxRectangle width="150" height="40" as="alternateBounds" />
          </mxGeometry>
        </mxCell>
        <mxCell id="3RS33FUQFM2WRNRjqzGx-35" value="8" style="shape=partialRectangle;html=1;whiteSpace=wrap;connectable=0;strokeColor=inherit;overflow=hidden;fillColor=none;top=0;left=0;bottom=0;right=0;pointerEvents=1;fontSize=14;" vertex="1" parent="3RS33FUQFM2WRNRjqzGx-32">
          <mxGeometry x="300" width="150" height="40" as="geometry">
            <mxRectangle width="150" height="40" as="alternateBounds" />
          </mxGeometry>
        </mxCell>
        <mxCell id="3RS33FUQFM2WRNRjqzGx-36" style="shape=partialRectangle;html=1;whiteSpace=wrap;connectable=0;strokeColor=inherit;overflow=hidden;fillColor=none;top=0;left=0;bottom=0;right=0;pointerEvents=1;fontSize=14;" vertex="1" parent="3RS33FUQFM2WRNRjqzGx-32">
          <mxGeometry x="450" width="150" height="40" as="geometry">
            <mxRectangle width="150" height="40" as="alternateBounds" />
          </mxGeometry>
        </mxCell>
        <mxCell id="3RS33FUQFM2WRNRjqzGx-37" value="10" style="shape=partialRectangle;html=1;whiteSpace=wrap;connectable=0;strokeColor=inherit;overflow=hidden;fillColor=none;top=0;left=0;bottom=0;right=0;pointerEvents=1;fontSize=14;" vertex="1" parent="3RS33FUQFM2WRNRjqzGx-32">
          <mxGeometry x="600" width="150" height="40" as="geometry">
            <mxRectangle width="150" height="40" as="alternateBounds" />
          </mxGeometry>
        </mxCell>
        <mxCell id="3RS33FUQFM2WRNRjqzGx-38" value="&lt;span style=&quot;font-size: 15px;&quot;&gt;Yeni Ölçüm Ekle&lt;/span&gt;" style="rounded=1;whiteSpace=wrap;html=1;fontSize=15;fontStyle=1;fillColor=#d5e8d4;strokeColor=#82b366;" vertex="1" parent="1">
          <mxGeometry x="50" y="520" width="750" height="40" as="geometry" />
        </mxCell>
        <mxCell id="3RS33FUQFM2WRNRjqzGx-39" value="Ölçüm Çeşidi" style="rounded=1;whiteSpace=wrap;html=1;fontStyle=1;fontSize=13;fillColor=#ffe6cc;strokeColor=#d79b00;" vertex="1" parent="1">
          <mxGeometry x="50" y="200" width="150" height="40" as="geometry" />
        </mxCell>
      </root>
    </mxGraphModel>
  </diagram>
  <diagram id="efplhiruftophKl-Pjsc" name="DenetimPlanlama">
    <mxGraphModel dx="3559" dy="1260" grid="1" gridSize="10" guides="1" tooltips="1" connect="1" arrows="1" fold="1" page="1" pageScale="1" pageWidth="1169" pageHeight="827" math="0" shadow="0">
      <root>
        <mxCell id="0" />
        <mxCell id="1" parent="0" />
        <mxCell id="r7qsQUm9Eu_SeDQ_pSWQ-1" value="Sıklık seçiniz" style="rounded=0;html=1;shadow=0;fillColor=#eeeeee;strokeColor=#36393d;align=left;" parent="1" vertex="1">
          <mxGeometry x="-960" y="320" width="400" height="40" as="geometry" />
        </mxCell>
        <mxCell id="qY6eyga4s85QBfa6V5WU-11" value="&lt;span style=&quot;white-space: pre;&quot;&gt; &lt;/span&gt;Lokasyon seçiniz" style="rounded=0;whiteSpace=wrap;html=1;shadow=0;fillColor=#eeeeee;strokeColor=#36393d;align=left;" parent="1" vertex="1">
          <mxGeometry x="-960" y="200" width="400" height="40" as="geometry" />
        </mxCell>
        <mxCell id="qY6eyga4s85QBfa6V5WU-21" value="" style="rounded=0;whiteSpace=wrap;html=1;shadow=0;fillColor=#eeeeee;strokeColor=#36393d;" parent="1" vertex="1">
          <mxGeometry x="-960" y="240" width="400" height="40" as="geometry" />
        </mxCell>
        <mxCell id="NvLlh8qbQ2Eq97RcIXIS-1" value="Denetim Planlama Sayfası" style="rounded=0;whiteSpace=wrap;html=1;fillColor=#dae8fc;strokeColor=#6c8ebf;movable=1;resizable=1;rotatable=1;deletable=1;editable=1;locked=0;connectable=1;" parent="1" vertex="1">
          <mxGeometry x="-1160" width="640" height="40" as="geometry" />
        </mxCell>
        <mxCell id="0iBITXydbtItBgyWBdC3-1" value="Plan Oluşturma" style="rounded=1;whiteSpace=wrap;html=1;fillColor=#dae8fc;strokeColor=#6c8ebf;" parent="1" vertex="1">
          <mxGeometry x="-1160" y="40" width="120" height="40" as="geometry" />
        </mxCell>
        <mxCell id="0iBITXydbtItBgyWBdC3-2" value="Ölçümler" style="rounded=1;whiteSpace=wrap;html=1;fillColor=#f5f5f5;strokeColor=#666666;fontColor=#333333;" parent="1" vertex="1">
          <mxGeometry x="-1040" y="40" width="120" height="40" as="geometry" />
        </mxCell>
        <mxCell id="qY6eyga4s85QBfa6V5WU-31" value="Denetim Sıklığı" style="rounded=0;whiteSpace=wrap;html=1;" parent="1" vertex="1">
          <mxGeometry x="-1160" y="320" width="160" height="40" as="geometry" />
        </mxCell>
        <mxCell id="qY6eyga4s85QBfa6V5WU-28" value="" style="shape=triangle;direction=south;fillColor=#000000;strokeColor=none;html=1;sketch=0;" parent="1" vertex="1">
          <mxGeometry x="-589.9882491186839" y="211.75" width="29.988249118683893" height="16.5" as="geometry" />
        </mxCell>
        <mxCell id="qY6eyga4s85QBfa6V5WU-2" value="Lokasyon Adı" style="rounded=0;whiteSpace=wrap;html=1;" parent="1" vertex="1">
          <mxGeometry x="-1160" y="200" width="160" height="40" as="geometry" />
        </mxCell>
        <mxCell id="qY6eyga4s85QBfa6V5WU-9" value="Tags" style="rounded=0;whiteSpace=wrap;html=1;" parent="1" vertex="1">
          <mxGeometry x="-1160" y="240" width="160" height="40" as="geometry" />
        </mxCell>
        <mxCell id="qY6eyga4s85QBfa6V5WU-32" value="Şablon" style="rounded=0;whiteSpace=wrap;html=1;" parent="1" vertex="1">
          <mxGeometry x="-1160" y="280" width="160" height="40" as="geometry" />
        </mxCell>
        <mxCell id="qY6eyga4s85QBfa6V5WU-43" value="Denetim Tarihi" style="rounded=0;whiteSpace=wrap;html=1;" parent="1" vertex="1">
          <mxGeometry x="-1160" y="360" width="160" height="40" as="geometry" />
        </mxCell>
        <mxCell id="qY6eyga4s85QBfa6V5WU-22" value="Removable tag1" style="dashed=0;html=1;fillColor=#F0F2F5;strokeColor=none;align=left;rounded=1;arcSize=10;fontColor=#596780;fontStyle=1;fontSize=8;shadow=0;spacingLeft=3" parent="1" vertex="1">
          <mxGeometry x="-935.556705882353" y="249.99599999999998" width="89.43905882352942" height="20.00250000000001" as="geometry" />
        </mxCell>
        <mxCell id="qY6eyga4s85QBfa6V5WU-23" value="" style="html=1;shadow=0;dashed=0;shape=mxgraph.atlassian.x;strokeColor=#596780;strokeWidth=2" parent="qY6eyga4s85QBfa6V5WU-22" vertex="1">
          <mxGeometry x="1" y="0.5" width="6" height="6" relative="1" as="geometry">
            <mxPoint x="-11" y="-3" as="offset" />
          </mxGeometry>
        </mxCell>
        <mxCell id="qY6eyga4s85QBfa6V5WU-24" value="Removable tag4" style="dashed=0;html=1;fillColor=#F0F2F5;strokeColor=none;align=left;rounded=1;arcSize=10;fontColor=#596780;fontStyle=1;fontSize=8;shadow=0;spacingLeft=3" parent="1" vertex="1">
          <mxGeometry x="-711.5294117647059" y="249.99599999999998" width="103.5294117647059" height="20.00250000000001" as="geometry" />
        </mxCell>
        <mxCell id="qY6eyga4s85QBfa6V5WU-25" value="" style="html=1;shadow=0;dashed=0;shape=mxgraph.atlassian.x;strokeColor=#596780;strokeWidth=2" parent="qY6eyga4s85QBfa6V5WU-24" vertex="1">
          <mxGeometry x="1" y="0.5" width="6" height="6" relative="1" as="geometry">
            <mxPoint x="-11" y="-3" as="offset" />
          </mxGeometry>
        </mxCell>
        <mxCell id="qY6eyga4s85QBfa6V5WU-26" value="Removable tag2" style="dashed=0;html=1;fillColor=#F0F2F5;strokeColor=none;align=left;rounded=1;arcSize=10;fontColor=#596780;fontStyle=1;fontSize=8;shadow=0;spacingLeft=3" parent="1" vertex="1">
          <mxGeometry x="-835.764705882353" y="250.99350000000004" width="103.5294117647059" height="20.00250000000001" as="geometry" />
        </mxCell>
        <mxCell id="qY6eyga4s85QBfa6V5WU-27" value="" style="html=1;shadow=0;dashed=0;shape=mxgraph.atlassian.x;strokeColor=#596780;strokeWidth=2" parent="qY6eyga4s85QBfa6V5WU-26" vertex="1">
          <mxGeometry x="1" y="0.5" width="6" height="6" relative="1" as="geometry">
            <mxPoint x="-11" y="-3" as="offset" />
          </mxGeometry>
        </mxCell>
        <mxCell id="qY6eyga4s85QBfa6V5WU-48" value="&lt;span style=&quot;white-space: pre;&quot;&gt; &lt;/span&gt;Tarih giriniz" style="rounded=0;html=1;shadow=0;fillColor=#eeeeee;strokeColor=#36393d;align=left;" parent="1" vertex="1">
          <mxGeometry x="-960" y="360" width="400" height="40" as="geometry" />
        </mxCell>
        <mxCell id="qY6eyga4s85QBfa6V5WU-47" value="" style="shape=mxgraph.gmdl.calendar;fillColor=#000000;strokeColor=none;sketch=0;hachureGap=4;pointerEvents=0;fontFamily=Architects Daughter;fontSource=https%3A%2F%2Ffonts.googleapis.com%2Fcss%3Ffamily%3DArchitects%2BDaughter;fontSize=20;" parent="1" vertex="1">
          <mxGeometry x="-590" y="365.5" width="30" height="29" as="geometry" />
        </mxCell>
        <mxCell id="r7qsQUm9Eu_SeDQ_pSWQ-2" value="Şablon seçiniz" style="rounded=0;html=1;shadow=0;fillColor=#eeeeee;strokeColor=#36393d;align=left;" parent="1" vertex="1">
          <mxGeometry x="-960" y="280" width="400" height="40" as="geometry" />
        </mxCell>
        <mxCell id="r7qsQUm9Eu_SeDQ_pSWQ-3" value="Denetçi" style="rounded=0;whiteSpace=wrap;html=1;" parent="1" vertex="1">
          <mxGeometry x="-1160" y="400" width="160" height="40" as="geometry" />
        </mxCell>
        <mxCell id="r7qsQUm9Eu_SeDQ_pSWQ-4" value="&lt;span style=&quot;white-space: pre;&quot;&gt; &lt;/span&gt;Denetçileri seçiniz" style="rounded=0;html=1;shadow=0;fillColor=#eeeeee;strokeColor=#36393d;align=left;" parent="1" vertex="1">
          <mxGeometry x="-960" y="400" width="400" height="40" as="geometry" />
        </mxCell>
        <mxCell id="r7qsQUm9Eu_SeDQ_pSWQ-5" value="" style="shape=triangle;direction=south;fillColor=#000000;strokeColor=none;html=1;sketch=0;" parent="1" vertex="1">
          <mxGeometry x="-589.9882491186839" y="291.75" width="29.988249118683893" height="16.5" as="geometry" />
        </mxCell>
        <mxCell id="r7qsQUm9Eu_SeDQ_pSWQ-6" value="" style="shape=triangle;direction=south;fillColor=#000000;strokeColor=none;html=1;sketch=0;" parent="1" vertex="1">
          <mxGeometry x="-589.9982491186839" y="411.75" width="29.988249118683893" height="16.5" as="geometry" />
        </mxCell>
        <mxCell id="r7qsQUm9Eu_SeDQ_pSWQ-7" value="Mutabakat zorunlu mu?" style="rounded=0;whiteSpace=wrap;html=1;" parent="1" vertex="1">
          <mxGeometry x="-1160" y="480" width="160" height="40" as="geometry" />
        </mxCell>
        <mxCell id="r7qsQUm9Eu_SeDQ_pSWQ-8" value="Check-in zorunlu mu?" style="rounded=0;whiteSpace=wrap;html=1;" parent="1" vertex="1">
          <mxGeometry x="-1160" y="520" width="160" height="40" as="geometry" />
        </mxCell>
        <mxCell id="r7qsQUm9Eu_SeDQ_pSWQ-9" value="Ölçüm zorunlu mu?" style="rounded=0;whiteSpace=wrap;html=1;" parent="1" vertex="1">
          <mxGeometry x="-1160" y="560" width="160" height="40" as="geometry" />
        </mxCell>
        <mxCell id="r7qsQUm9Eu_SeDQ_pSWQ-10" value="" style="html=1;shadow=0;dashed=0;shape=mxgraph.bootstrap.checkbox2;labelPosition=right;verticalLabelPosition=middle;align=left;verticalAlign=middle;gradientColor=#DEDEDE;fillColor=#EDEDED;checked=0;spacing=5;checkedFill=#0085FC;checkedStroke=#ffffff;sketch=0;" parent="1" vertex="1">
          <mxGeometry x="-960" y="495" width="10" height="10" as="geometry" />
        </mxCell>
        <mxCell id="r7qsQUm9Eu_SeDQ_pSWQ-11" value="" style="html=1;shadow=0;dashed=0;shape=mxgraph.bootstrap.checkbox2;labelPosition=right;verticalLabelPosition=middle;align=left;verticalAlign=middle;gradientColor=#DEDEDE;fillColor=#EDEDED;checked=0;spacing=5;checkedFill=#0085FC;checkedStroke=#ffffff;sketch=0;" parent="1" vertex="1">
          <mxGeometry x="-960" y="535" width="10" height="10" as="geometry" />
        </mxCell>
        <mxCell id="r7qsQUm9Eu_SeDQ_pSWQ-12" value="" style="html=1;shadow=0;dashed=0;shape=mxgraph.bootstrap.checkbox2;labelPosition=right;verticalLabelPosition=middle;align=left;verticalAlign=middle;gradientColor=#DEDEDE;fillColor=#EDEDED;checked=0;spacing=5;checkedFill=#0085FC;checkedStroke=#ffffff;sketch=0;" parent="1" vertex="1">
          <mxGeometry x="-960" y="575" width="10" height="10" as="geometry" />
        </mxCell>
        <mxCell id="CAlJK09EfRW1NinpeqmG-1" value="Plan Önizleme" style="rounded=1;whiteSpace=wrap;html=1;fillColor=#f5f5f5;strokeColor=#666666;fontColor=#333333;" parent="1" vertex="1">
          <mxGeometry x="-920" y="40" width="120" height="40" as="geometry" />
        </mxCell>
        <mxCell id="4FLh4iWN5TlHJqN994n6-1" value="" style="shape=triangle;direction=south;fillColor=#000000;strokeColor=none;html=1;sketch=0;" vertex="1" parent="1">
          <mxGeometry x="-589.9982491186839" y="331.75" width="29.988249118683893" height="16.5" as="geometry" />
        </mxCell>
        <mxCell id="4FLh4iWN5TlHJqN994n6-2" value="Denetim Planlama Sayfası" style="rounded=0;whiteSpace=wrap;html=1;fillColor=#dae8fc;strokeColor=#6c8ebf;movable=1;resizable=1;rotatable=1;deletable=1;editable=1;locked=0;connectable=1;" vertex="1" parent="1">
          <mxGeometry x="40" width="800" height="40" as="geometry" />
        </mxCell>
        <mxCell id="4FLh4iWN5TlHJqN994n6-3" value="Plan Oluşturma" style="rounded=1;whiteSpace=wrap;html=1;fillColor=#f5f5f5;strokeColor=#666666;fontColor=#333333;" vertex="1" parent="1">
          <mxGeometry x="40" y="40" width="120" height="40" as="geometry" />
        </mxCell>
        <mxCell id="4FLh4iWN5TlHJqN994n6-4" value="Ölçümler" style="rounded=1;whiteSpace=wrap;html=1;fillColor=#dae8fc;strokeColor=#6c8ebf;" vertex="1" parent="1">
          <mxGeometry x="160" y="40" width="120" height="40" as="geometry" />
        </mxCell>
        <mxCell id="4FLh4iWN5TlHJqN994n6-5" value="Plan Önizleme" style="rounded=1;whiteSpace=wrap;html=1;fillColor=#f5f5f5;strokeColor=#666666;fontColor=#333333;" vertex="1" parent="1">
          <mxGeometry x="280" y="40" width="120" height="40" as="geometry" />
        </mxCell>
        <mxCell id="4FLh4iWN5TlHJqN994n6-6" value="" style="rounded=0;whiteSpace=wrap;html=1;shadow=0;perimeter=ellipsePerimeter;movable=1;resizable=1;rotatable=1;deletable=1;editable=1;locked=0;connectable=1;strokeWidth=4;fillColor=#dee9f7;strokeColor=#6c8ebf;" vertex="1" parent="1">
          <mxGeometry x="40" y="120" width="800" height="480" as="geometry" />
        </mxCell>
        <mxCell id="4FLh4iWN5TlHJqN994n6-8" value="Ölçümler" style="text;html=1;strokeColor=none;fillColor=none;align=center;verticalAlign=middle;whiteSpace=wrap;rounded=0;fontStyle=1;fontSize=14;labelPosition=center;verticalLabelPosition=middle;" vertex="1" parent="1">
          <mxGeometry x="50" y="131.75" width="110" height="30" as="geometry" />
        </mxCell>
        <mxCell id="4FLh4iWN5TlHJqN994n6-21" value="&lt;span style=&quot;white-space: pre;&quot;&gt;Denetim seçiniz (ABC Şubesi, 20.04.2023)&lt;/span&gt;" style="rounded=0;whiteSpace=wrap;html=1;shadow=0;fillColor=#eeeeee;strokeColor=#36393d;align=left;" vertex="1" parent="1">
          <mxGeometry x="-960" y="120" width="400" height="40" as="geometry" />
        </mxCell>
        <mxCell id="4FLh4iWN5TlHJqN994n6-22" value="" style="shape=triangle;direction=south;fillColor=#000000;strokeColor=none;html=1;sketch=0;" vertex="1" parent="1">
          <mxGeometry x="-589.9882491186839" y="131.75" width="29.988249118683893" height="16.5" as="geometry" />
        </mxCell>
        <mxCell id="4FLh4iWN5TlHJqN994n6-23" value="Denetim Tekrarla" style="rounded=0;whiteSpace=wrap;html=1;" vertex="1" parent="1">
          <mxGeometry x="-1160" y="120" width="160" height="40" as="geometry" />
        </mxCell>
        <mxCell id="4FLh4iWN5TlHJqN994n6-37" value="Ölçüm Alanı" style="rounded=1;whiteSpace=wrap;html=1;fontStyle=1;fontSize=13;fillColor=#ffe6cc;strokeColor=#d79b00;" vertex="1" parent="1">
          <mxGeometry x="200" y="200" width="150" height="40" as="geometry" />
        </mxCell>
        <mxCell id="4FLh4iWN5TlHJqN994n6-38" value="Asgari Ölçüm Değeri" style="rounded=1;whiteSpace=wrap;html=1;fontStyle=1;fontSize=13;fillColor=#ffe6cc;strokeColor=#d79b00;" vertex="1" parent="1">
          <mxGeometry x="350" y="200" width="150" height="40" as="geometry" />
        </mxCell>
        <mxCell id="4FLh4iWN5TlHJqN994n6-40" value="Standart Ölçüm Değeri" style="rounded=1;whiteSpace=wrap;html=1;fontStyle=1;fontSize=13;fillColor=#ffe6cc;strokeColor=#d79b00;" vertex="1" parent="1">
          <mxGeometry x="500" y="200" width="150" height="40" as="geometry" />
        </mxCell>
        <mxCell id="4FLh4iWN5TlHJqN994n6-41" value="Azami Ölçüm Değeri" style="rounded=1;whiteSpace=wrap;html=1;fontStyle=1;fontSize=13;fillColor=#ffe6cc;strokeColor=#d79b00;" vertex="1" parent="1">
          <mxGeometry x="650" y="200" width="150" height="40" as="geometry" />
        </mxCell>
        <mxCell id="4FLh4iWN5TlHJqN994n6-42" value="" style="shape=table;startSize=0;container=1;collapsible=0;childLayout=tableLayout;fontSize=14;" vertex="1" parent="1">
          <mxGeometry x="50" y="240" width="750" height="240" as="geometry" />
        </mxCell>
        <mxCell id="4FLh4iWN5TlHJqN994n6-43" value="" style="shape=tableRow;horizontal=0;startSize=0;swimlaneHead=0;swimlaneBody=0;strokeColor=inherit;top=0;left=0;bottom=0;right=0;collapsible=0;dropTarget=0;fillColor=none;points=[[0,0.5],[1,0.5]];portConstraint=eastwest;fontSize=16;" vertex="1" parent="4FLh4iWN5TlHJqN994n6-42">
          <mxGeometry width="750" height="40" as="geometry" />
        </mxCell>
        <mxCell id="4FLh4iWN5TlHJqN994n6-44" value="Sıcaklık &lt;sup&gt;0&lt;/sup&gt;C" style="shape=partialRectangle;html=1;whiteSpace=wrap;connectable=0;strokeColor=inherit;overflow=hidden;fillColor=none;top=0;left=0;bottom=0;right=0;pointerEvents=1;fontSize=16;" vertex="1" parent="4FLh4iWN5TlHJqN994n6-43">
          <mxGeometry width="150" height="40" as="geometry">
            <mxRectangle width="150" height="40" as="alternateBounds" />
          </mxGeometry>
        </mxCell>
        <mxCell id="4FLh4iWN5TlHJqN994n6-45" value="Buzdolabı" style="shape=partialRectangle;html=1;whiteSpace=wrap;connectable=0;strokeColor=inherit;overflow=hidden;fillColor=none;top=0;left=0;bottom=0;right=0;pointerEvents=1;fontSize=14;" vertex="1" parent="4FLh4iWN5TlHJqN994n6-43">
          <mxGeometry x="150" width="150" height="40" as="geometry">
            <mxRectangle width="150" height="40" as="alternateBounds" />
          </mxGeometry>
        </mxCell>
        <mxCell id="4FLh4iWN5TlHJqN994n6-46" value="" style="shape=partialRectangle;html=1;whiteSpace=wrap;connectable=0;strokeColor=inherit;overflow=hidden;fillColor=none;top=0;left=0;bottom=0;right=0;pointerEvents=1;fontSize=14;" vertex="1" parent="4FLh4iWN5TlHJqN994n6-43">
          <mxGeometry x="300" width="150" height="40" as="geometry">
            <mxRectangle width="150" height="40" as="alternateBounds" />
          </mxGeometry>
        </mxCell>
        <mxCell id="4FLh4iWN5TlHJqN994n6-58" style="shape=partialRectangle;html=1;whiteSpace=wrap;connectable=0;strokeColor=inherit;overflow=hidden;fillColor=none;top=0;left=0;bottom=0;right=0;pointerEvents=1;fontSize=14;" vertex="1" parent="4FLh4iWN5TlHJqN994n6-43">
          <mxGeometry x="450" width="150" height="40" as="geometry">
            <mxRectangle width="150" height="40" as="alternateBounds" />
          </mxGeometry>
        </mxCell>
        <mxCell id="4FLh4iWN5TlHJqN994n6-55" value="+4" style="shape=partialRectangle;html=1;whiteSpace=wrap;connectable=0;strokeColor=inherit;overflow=hidden;fillColor=none;top=0;left=0;bottom=0;right=0;pointerEvents=1;fontSize=14;" vertex="1" parent="4FLh4iWN5TlHJqN994n6-43">
          <mxGeometry x="600" width="150" height="40" as="geometry">
            <mxRectangle width="150" height="40" as="alternateBounds" />
          </mxGeometry>
        </mxCell>
        <mxCell id="4FLh4iWN5TlHJqN994n6-47" value="" style="shape=tableRow;horizontal=0;startSize=0;swimlaneHead=0;swimlaneBody=0;strokeColor=inherit;top=0;left=0;bottom=0;right=0;collapsible=0;dropTarget=0;fillColor=none;points=[[0,0.5],[1,0.5]];portConstraint=eastwest;fontSize=16;" vertex="1" parent="4FLh4iWN5TlHJqN994n6-42">
          <mxGeometry y="40" width="750" height="40" as="geometry" />
        </mxCell>
        <mxCell id="4FLh4iWN5TlHJqN994n6-48" value="&lt;font style=&quot;font-size: 14px;&quot;&gt;Nem %RH&lt;/font&gt;" style="shape=partialRectangle;html=1;whiteSpace=wrap;connectable=0;strokeColor=inherit;overflow=hidden;fillColor=none;top=0;left=0;bottom=0;right=0;pointerEvents=1;fontSize=16;" vertex="1" parent="4FLh4iWN5TlHJqN994n6-47">
          <mxGeometry width="150" height="40" as="geometry">
            <mxRectangle width="150" height="40" as="alternateBounds" />
          </mxGeometry>
        </mxCell>
        <mxCell id="4FLh4iWN5TlHJqN994n6-49" value="Kuru Gıda Deposu" style="shape=partialRectangle;html=1;whiteSpace=wrap;connectable=0;strokeColor=inherit;overflow=hidden;fillColor=none;top=0;left=0;bottom=0;right=0;pointerEvents=1;fontSize=14;" vertex="1" parent="4FLh4iWN5TlHJqN994n6-47">
          <mxGeometry x="150" width="150" height="40" as="geometry">
            <mxRectangle width="150" height="40" as="alternateBounds" />
          </mxGeometry>
        </mxCell>
        <mxCell id="4FLh4iWN5TlHJqN994n6-50" value="" style="shape=partialRectangle;html=1;whiteSpace=wrap;connectable=0;strokeColor=inherit;overflow=hidden;fillColor=none;top=0;left=0;bottom=0;right=0;pointerEvents=1;fontSize=14;" vertex="1" parent="4FLh4iWN5TlHJqN994n6-47">
          <mxGeometry x="300" width="150" height="40" as="geometry">
            <mxRectangle width="150" height="40" as="alternateBounds" />
          </mxGeometry>
        </mxCell>
        <mxCell id="4FLh4iWN5TlHJqN994n6-59" value="60" style="shape=partialRectangle;html=1;whiteSpace=wrap;connectable=0;strokeColor=inherit;overflow=hidden;fillColor=none;top=0;left=0;bottom=0;right=0;pointerEvents=1;fontSize=14;" vertex="1" parent="4FLh4iWN5TlHJqN994n6-47">
          <mxGeometry x="450" width="150" height="40" as="geometry">
            <mxRectangle width="150" height="40" as="alternateBounds" />
          </mxGeometry>
        </mxCell>
        <mxCell id="4FLh4iWN5TlHJqN994n6-56" style="shape=partialRectangle;html=1;whiteSpace=wrap;connectable=0;strokeColor=inherit;overflow=hidden;fillColor=none;top=0;left=0;bottom=0;right=0;pointerEvents=1;fontSize=14;" vertex="1" parent="4FLh4iWN5TlHJqN994n6-47">
          <mxGeometry x="600" width="150" height="40" as="geometry">
            <mxRectangle width="150" height="40" as="alternateBounds" />
          </mxGeometry>
        </mxCell>
        <mxCell id="4FLh4iWN5TlHJqN994n6-51" value="" style="shape=tableRow;horizontal=0;startSize=0;swimlaneHead=0;swimlaneBody=0;strokeColor=inherit;top=0;left=0;bottom=0;right=0;collapsible=0;dropTarget=0;fillColor=none;points=[[0,0.5],[1,0.5]];portConstraint=eastwest;fontSize=16;" vertex="1" parent="4FLh4iWN5TlHJqN994n6-42">
          <mxGeometry y="80" width="750" height="40" as="geometry" />
        </mxCell>
        <mxCell id="4FLh4iWN5TlHJqN994n6-52" value="Nakit TL" style="shape=partialRectangle;html=1;whiteSpace=wrap;connectable=0;strokeColor=inherit;overflow=hidden;fillColor=none;top=0;left=0;bottom=0;right=0;pointerEvents=1;fontSize=14;" vertex="1" parent="4FLh4iWN5TlHJqN994n6-51">
          <mxGeometry width="150" height="40" as="geometry">
            <mxRectangle width="150" height="40" as="alternateBounds" />
          </mxGeometry>
        </mxCell>
        <mxCell id="4FLh4iWN5TlHJqN994n6-53" value="Çelik Kasa" style="shape=partialRectangle;html=1;whiteSpace=wrap;connectable=0;strokeColor=inherit;overflow=hidden;fillColor=none;top=0;left=0;bottom=0;right=0;pointerEvents=1;fontSize=14;" vertex="1" parent="4FLh4iWN5TlHJqN994n6-51">
          <mxGeometry x="150" width="150" height="40" as="geometry">
            <mxRectangle width="150" height="40" as="alternateBounds" />
          </mxGeometry>
        </mxCell>
        <mxCell id="4FLh4iWN5TlHJqN994n6-54" value="" style="shape=partialRectangle;html=1;whiteSpace=wrap;connectable=0;strokeColor=inherit;overflow=hidden;fillColor=none;top=0;left=0;bottom=0;right=0;pointerEvents=1;fontSize=14;" vertex="1" parent="4FLh4iWN5TlHJqN994n6-51">
          <mxGeometry x="300" width="150" height="40" as="geometry">
            <mxRectangle width="150" height="40" as="alternateBounds" />
          </mxGeometry>
        </mxCell>
        <mxCell id="4FLh4iWN5TlHJqN994n6-60" style="shape=partialRectangle;html=1;whiteSpace=wrap;connectable=0;strokeColor=inherit;overflow=hidden;fillColor=none;top=0;left=0;bottom=0;right=0;pointerEvents=1;fontSize=14;" vertex="1" parent="4FLh4iWN5TlHJqN994n6-51">
          <mxGeometry x="450" width="150" height="40" as="geometry">
            <mxRectangle width="150" height="40" as="alternateBounds" />
          </mxGeometry>
        </mxCell>
        <mxCell id="4FLh4iWN5TlHJqN994n6-57" value="10.000" style="shape=partialRectangle;html=1;whiteSpace=wrap;connectable=0;strokeColor=inherit;overflow=hidden;fillColor=none;top=0;left=0;bottom=0;right=0;pointerEvents=1;fontSize=14;" vertex="1" parent="4FLh4iWN5TlHJqN994n6-51">
          <mxGeometry x="600" width="150" height="40" as="geometry">
            <mxRectangle width="150" height="40" as="alternateBounds" />
          </mxGeometry>
        </mxCell>
        <mxCell id="4FLh4iWN5TlHJqN994n6-61" style="shape=tableRow;horizontal=0;startSize=0;swimlaneHead=0;swimlaneBody=0;strokeColor=inherit;top=0;left=0;bottom=0;right=0;collapsible=0;dropTarget=0;fillColor=none;points=[[0,0.5],[1,0.5]];portConstraint=eastwest;fontSize=16;" vertex="1" parent="4FLh4iWN5TlHJqN994n6-42">
          <mxGeometry y="120" width="750" height="40" as="geometry" />
        </mxCell>
        <mxCell id="4FLh4iWN5TlHJqN994n6-62" value="Nakit TL" style="shape=partialRectangle;html=1;whiteSpace=wrap;connectable=0;strokeColor=inherit;overflow=hidden;fillColor=none;top=0;left=0;bottom=0;right=0;pointerEvents=1;fontSize=14;" vertex="1" parent="4FLh4iWN5TlHJqN994n6-61">
          <mxGeometry width="150" height="40" as="geometry">
            <mxRectangle width="150" height="40" as="alternateBounds" />
          </mxGeometry>
        </mxCell>
        <mxCell id="4FLh4iWN5TlHJqN994n6-63" value="Yazarkasa" style="shape=partialRectangle;html=1;whiteSpace=wrap;connectable=0;strokeColor=inherit;overflow=hidden;fillColor=none;top=0;left=0;bottom=0;right=0;pointerEvents=1;fontSize=14;" vertex="1" parent="4FLh4iWN5TlHJqN994n6-61">
          <mxGeometry x="150" width="150" height="40" as="geometry">
            <mxRectangle width="150" height="40" as="alternateBounds" />
          </mxGeometry>
        </mxCell>
        <mxCell id="4FLh4iWN5TlHJqN994n6-64" value="200" style="shape=partialRectangle;html=1;whiteSpace=wrap;connectable=0;strokeColor=inherit;overflow=hidden;fillColor=none;top=0;left=0;bottom=0;right=0;pointerEvents=1;fontSize=14;" vertex="1" parent="4FLh4iWN5TlHJqN994n6-61">
          <mxGeometry x="300" width="150" height="40" as="geometry">
            <mxRectangle width="150" height="40" as="alternateBounds" />
          </mxGeometry>
        </mxCell>
        <mxCell id="4FLh4iWN5TlHJqN994n6-65" style="shape=partialRectangle;html=1;whiteSpace=wrap;connectable=0;strokeColor=inherit;overflow=hidden;fillColor=none;top=0;left=0;bottom=0;right=0;pointerEvents=1;fontSize=14;" vertex="1" parent="4FLh4iWN5TlHJqN994n6-61">
          <mxGeometry x="450" width="150" height="40" as="geometry">
            <mxRectangle width="150" height="40" as="alternateBounds" />
          </mxGeometry>
        </mxCell>
        <mxCell id="4FLh4iWN5TlHJqN994n6-66" value="800" style="shape=partialRectangle;html=1;whiteSpace=wrap;connectable=0;strokeColor=inherit;overflow=hidden;fillColor=none;top=0;left=0;bottom=0;right=0;pointerEvents=1;fontSize=14;" vertex="1" parent="4FLh4iWN5TlHJqN994n6-61">
          <mxGeometry x="600" width="150" height="40" as="geometry">
            <mxRectangle width="150" height="40" as="alternateBounds" />
          </mxGeometry>
        </mxCell>
        <mxCell id="4FLh4iWN5TlHJqN994n6-71" style="shape=tableRow;horizontal=0;startSize=0;swimlaneHead=0;swimlaneBody=0;strokeColor=inherit;top=0;left=0;bottom=0;right=0;collapsible=0;dropTarget=0;fillColor=none;points=[[0,0.5],[1,0.5]];portConstraint=eastwest;fontSize=16;" vertex="1" parent="4FLh4iWN5TlHJqN994n6-42">
          <mxGeometry y="160" width="750" height="40" as="geometry" />
        </mxCell>
        <mxCell id="4FLh4iWN5TlHJqN994n6-72" value="pH" style="shape=partialRectangle;html=1;whiteSpace=wrap;connectable=0;strokeColor=inherit;overflow=hidden;fillColor=none;top=0;left=0;bottom=0;right=0;pointerEvents=1;fontSize=14;" vertex="1" parent="4FLh4iWN5TlHJqN994n6-71">
          <mxGeometry width="150" height="40" as="geometry">
            <mxRectangle width="150" height="40" as="alternateBounds" />
          </mxGeometry>
        </mxCell>
        <mxCell id="4FLh4iWN5TlHJqN994n6-73" value="Bulaşık Makinesi" style="shape=partialRectangle;html=1;whiteSpace=wrap;connectable=0;strokeColor=inherit;overflow=hidden;fillColor=none;top=0;left=0;bottom=0;right=0;pointerEvents=1;fontSize=14;" vertex="1" parent="4FLh4iWN5TlHJqN994n6-71">
          <mxGeometry x="150" width="150" height="40" as="geometry">
            <mxRectangle width="150" height="40" as="alternateBounds" />
          </mxGeometry>
        </mxCell>
        <mxCell id="4FLh4iWN5TlHJqN994n6-74" value="8" style="shape=partialRectangle;html=1;whiteSpace=wrap;connectable=0;strokeColor=inherit;overflow=hidden;fillColor=none;top=0;left=0;bottom=0;right=0;pointerEvents=1;fontSize=14;" vertex="1" parent="4FLh4iWN5TlHJqN994n6-71">
          <mxGeometry x="300" width="150" height="40" as="geometry">
            <mxRectangle width="150" height="40" as="alternateBounds" />
          </mxGeometry>
        </mxCell>
        <mxCell id="4FLh4iWN5TlHJqN994n6-75" style="shape=partialRectangle;html=1;whiteSpace=wrap;connectable=0;strokeColor=inherit;overflow=hidden;fillColor=none;top=0;left=0;bottom=0;right=0;pointerEvents=1;fontSize=14;" vertex="1" parent="4FLh4iWN5TlHJqN994n6-71">
          <mxGeometry x="450" width="150" height="40" as="geometry">
            <mxRectangle width="150" height="40" as="alternateBounds" />
          </mxGeometry>
        </mxCell>
        <mxCell id="4FLh4iWN5TlHJqN994n6-76" value="10" style="shape=partialRectangle;html=1;whiteSpace=wrap;connectable=0;strokeColor=inherit;overflow=hidden;fillColor=none;top=0;left=0;bottom=0;right=0;pointerEvents=1;fontSize=14;" vertex="1" parent="4FLh4iWN5TlHJqN994n6-71">
          <mxGeometry x="600" width="150" height="40" as="geometry">
            <mxRectangle width="150" height="40" as="alternateBounds" />
          </mxGeometry>
        </mxCell>
        <mxCell id="0dl8HkIvo6NHNVravr-y-1" style="shape=tableRow;horizontal=0;startSize=0;swimlaneHead=0;swimlaneBody=0;strokeColor=inherit;top=0;left=0;bottom=0;right=0;collapsible=0;dropTarget=0;fillColor=none;points=[[0,0.5],[1,0.5]];portConstraint=eastwest;fontSize=16;" vertex="1" parent="4FLh4iWN5TlHJqN994n6-42">
          <mxGeometry y="200" width="750" height="40" as="geometry" />
        </mxCell>
        <mxCell id="0dl8HkIvo6NHNVravr-y-2" style="shape=partialRectangle;html=1;whiteSpace=wrap;connectable=0;strokeColor=inherit;overflow=hidden;fillColor=none;top=0;left=0;bottom=0;right=0;pointerEvents=1;fontSize=14;" vertex="1" parent="0dl8HkIvo6NHNVravr-y-1">
          <mxGeometry width="150" height="40" as="geometry">
            <mxRectangle width="150" height="40" as="alternateBounds" />
          </mxGeometry>
        </mxCell>
        <mxCell id="0dl8HkIvo6NHNVravr-y-3" style="shape=partialRectangle;html=1;whiteSpace=wrap;connectable=0;strokeColor=inherit;overflow=hidden;fillColor=none;top=0;left=0;bottom=0;right=0;pointerEvents=1;fontSize=14;" vertex="1" parent="0dl8HkIvo6NHNVravr-y-1">
          <mxGeometry x="150" width="150" height="40" as="geometry">
            <mxRectangle width="150" height="40" as="alternateBounds" />
          </mxGeometry>
        </mxCell>
        <mxCell id="0dl8HkIvo6NHNVravr-y-4" style="shape=partialRectangle;html=1;whiteSpace=wrap;connectable=0;strokeColor=inherit;overflow=hidden;fillColor=none;top=0;left=0;bottom=0;right=0;pointerEvents=1;fontSize=14;" vertex="1" parent="0dl8HkIvo6NHNVravr-y-1">
          <mxGeometry x="300" width="150" height="40" as="geometry">
            <mxRectangle width="150" height="40" as="alternateBounds" />
          </mxGeometry>
        </mxCell>
        <mxCell id="0dl8HkIvo6NHNVravr-y-5" style="shape=partialRectangle;html=1;whiteSpace=wrap;connectable=0;strokeColor=inherit;overflow=hidden;fillColor=none;top=0;left=0;bottom=0;right=0;pointerEvents=1;fontSize=14;" vertex="1" parent="0dl8HkIvo6NHNVravr-y-1">
          <mxGeometry x="450" width="150" height="40" as="geometry">
            <mxRectangle width="150" height="40" as="alternateBounds" />
          </mxGeometry>
        </mxCell>
        <mxCell id="0dl8HkIvo6NHNVravr-y-6" style="shape=partialRectangle;html=1;whiteSpace=wrap;connectable=0;strokeColor=inherit;overflow=hidden;fillColor=none;top=0;left=0;bottom=0;right=0;pointerEvents=1;fontSize=14;" vertex="1" parent="0dl8HkIvo6NHNVravr-y-1">
          <mxGeometry x="600" width="150" height="40" as="geometry">
            <mxRectangle width="150" height="40" as="alternateBounds" />
          </mxGeometry>
        </mxCell>
        <mxCell id="4FLh4iWN5TlHJqN994n6-10" value="&lt;span style=&quot;font-size: 15px;&quot;&gt;Yeni Ölçüm Ekle&lt;/span&gt;" style="rounded=1;whiteSpace=wrap;html=1;fontSize=15;fontStyle=1;fillColor=#d5e8d4;strokeColor=#82b366;" vertex="1" parent="1">
          <mxGeometry x="50" y="480" width="750" height="40" as="geometry" />
        </mxCell>
        <mxCell id="4FLh4iWN5TlHJqN994n6-77" value="Ölçüm Çeşidi" style="rounded=1;whiteSpace=wrap;html=1;fontStyle=1;fontSize=13;fillColor=#ffe6cc;strokeColor=#d79b00;" vertex="1" parent="1">
          <mxGeometry x="50" y="200" width="150" height="40" as="geometry" />
        </mxCell>
        <mxCell id="0dl8HkIvo6NHNVravr-y-7" value="" style="shape=triangle;direction=south;fillColor=#000000;strokeColor=none;html=1;sketch=0;" vertex="1" parent="1">
          <mxGeometry x="180" y="450" width="20" height="16.5" as="geometry" />
        </mxCell>
        <mxCell id="0dl8HkIvo6NHNVravr-y-8" value="&lt;span style=&quot;font-size: 15px;&quot;&gt;Sonraki Adım &lt;/span&gt;&lt;font style=&quot;font-size: 19px;&quot;&gt;→&lt;/font&gt;" style="rounded=1;whiteSpace=wrap;html=1;fontSize=15;fontStyle=1;fillColor=#d5e8d4;strokeColor=#82b366;" vertex="1" parent="1">
          <mxGeometry x="-746.12" y="560" width="186.12" height="40" as="geometry" />
        </mxCell>
        <mxCell id="0dl8HkIvo6NHNVravr-y-9" value="Denetim Planlama Sayfası" style="rounded=0;whiteSpace=wrap;html=1;fillColor=#dae8fc;strokeColor=#6c8ebf;movable=1;resizable=1;rotatable=1;deletable=1;editable=1;locked=0;connectable=1;" vertex="1" parent="1">
          <mxGeometry x="1200" width="800" height="40" as="geometry" />
        </mxCell>
        <mxCell id="0dl8HkIvo6NHNVravr-y-10" value="Plan Oluşturma" style="rounded=1;whiteSpace=wrap;html=1;fillColor=#f5f5f5;strokeColor=#666666;fontColor=#333333;" vertex="1" parent="1">
          <mxGeometry x="1200" y="40" width="120" height="40" as="geometry" />
        </mxCell>
        <mxCell id="0dl8HkIvo6NHNVravr-y-11" value="Ölçümler" style="rounded=1;whiteSpace=wrap;html=1;fillColor=#f5f5f5;strokeColor=#666666;fontColor=#333333;" vertex="1" parent="1">
          <mxGeometry x="1320" y="40" width="120" height="40" as="geometry" />
        </mxCell>
        <mxCell id="0dl8HkIvo6NHNVravr-y-12" value="Plan Önizleme" style="rounded=1;whiteSpace=wrap;html=1;fillColor=#dae8fc;strokeColor=#6c8ebf;" vertex="1" parent="1">
          <mxGeometry x="1440" y="40" width="120" height="40" as="geometry" />
        </mxCell>
      </root>
    </mxGraphModel>
  </diagram>
</mxfile>
